<?xml version="1.0" encoding="utf-8"?>
<!-- Generator: Adobe Illustrator 22.0.1, SVG Export Plug-In . SVG Version: 6.00 Build 0)  -->
<svg version="1.1" id="artwork" xmlns="http://www.w3.org/2000/svg" xmlns:xlink="http://www.w3.org/1999/xlink" x="0px" y="0px"
	 viewBox="0 0 136.2 41.7" style="enable-background:new 0 0 136.2 41.7;" xml:space="preserve">
<style type="text/css">
	.st0{fill:#A6A6A6;}
	.st1{fill:#FFFFFF;}
</style>
<g>
	<path class="st0" d="M130.8,41.4H5.2c-2.6,0-4.7-2.1-4.7-4.7V6.1c0-2.6,2.1-4.7,4.7-4.7h125.6c2.6,0,4.8,2.1,4.8,4.7v30.6
		C135.6,39.3,133.4,41.4,130.8,41.4L130.8,41.4z"/>
	<path d="M134.6,36.7c0,2.1-1.7,3.8-3.8,3.8H5.2c-2.1,0-3.8-1.7-3.8-3.8V6.1c0-2.1,1.7-3.8,3.8-3.8h125.6c2.1,0,3.8,1.7,3.8,3.8
		L134.6,36.7L134.6,36.7z"/>
	<g>
		<g>
			<path class="st1" d="M30.6,21.2c0-3.2,2.6-4.8,2.8-4.9c-1.5-2.2-3.9-2.5-4.7-2.5c-2-0.2-3.9,1.2-4.9,1.2c-1,0-2.6-1.2-4.2-1.1
				c-2.1,0-4.1,1.3-5.2,3.2c-2.3,3.9-0.6,9.7,1.6,12.9c1.1,1.6,2.4,3.3,4,3.2c1.6-0.1,2.2-1,4.2-1c1.9,0,2.5,1,4.2,1
				c1.7,0,2.8-1.6,3.9-3.1c1.3-1.8,1.8-3.5,1.8-3.6C34,26.4,30.7,25.1,30.6,21.2z"/>
			<path class="st1" d="M27.4,11.7c0.9-1.1,1.5-2.6,1.3-4.1c-1.3,0.1-2.8,0.9-3.8,1.9c-0.8,0.9-1.5,2.5-1.3,3.9
				C25.1,13.6,26.5,12.8,27.4,11.7z"/>
		</g>
	</g>
	<g>
		<path class="st1" d="M54.2,32.9h-2.3L50.7,29h-4.3l-1.2,3.9h-2.2l4.3-13.3h2.6L54.2,32.9z M50.3,27.4l-1.1-3.5
			c-0.1-0.4-0.3-1.2-0.7-2.5h0c-0.1,0.6-0.3,1.4-0.6,2.5l-1.1,3.5H50.3z"/>
		<path class="st1" d="M65.2,28c0,1.6-0.4,2.9-1.3,3.9c-0.8,0.8-1.8,1.3-2.9,1.3c-1.3,0-2.2-0.5-2.7-1.4h0v5.1H56V26.5
			c0-1,0-2.1-0.1-3.2h1.9l0.1,1.5h0c0.7-1.1,1.8-1.7,3.2-1.7c1.1,0,2.1,0.4,2.8,1.3C64.8,25.4,65.2,26.6,65.2,28z M63,28.1
			c0-0.9-0.2-1.7-0.6-2.3c-0.5-0.6-1.1-0.9-1.9-0.9c-0.5,0-1,0.2-1.4,0.5c-0.4,0.3-0.7,0.8-0.8,1.4c-0.1,0.3-0.1,0.5-0.1,0.7V29
			c0,0.7,0.2,1.3,0.6,1.8c0.4,0.5,1,0.7,1.7,0.7c0.8,0,1.4-0.3,1.9-0.9C62.8,29.9,63,29.1,63,28.1z"/>
		<path class="st1" d="M76.3,28c0,1.6-0.4,2.9-1.3,3.9c-0.8,0.8-1.8,1.3-2.9,1.3c-1.3,0-2.2-0.5-2.7-1.4h0v5.1h-2.1V26.5
			c0-1,0-2.1-0.1-3.2h1.9l0.1,1.5h0c0.7-1.1,1.8-1.7,3.2-1.7c1.1,0,2.1,0.4,2.8,1.3C75.9,25.4,76.3,26.6,76.3,28z M74.1,28.1
			c0-0.9-0.2-1.7-0.6-2.3c-0.5-0.6-1.1-0.9-1.9-0.9c-0.5,0-1,0.2-1.4,0.5c-0.4,0.3-0.7,0.8-0.8,1.4c-0.1,0.3-0.1,0.5-0.1,0.7V29
			c0,0.7,0.2,1.3,0.6,1.8c0.4,0.5,1,0.7,1.7,0.7c0.8,0,1.4-0.3,1.9-0.9C73.9,29.9,74.1,29.1,74.1,28.1z"/>
		<path class="st1" d="M88.6,29.2c0,1.1-0.4,2.1-1.2,2.8c-0.9,0.8-2.1,1.2-3.6,1.2c-1.4,0-2.6-0.3-3.5-0.8l0.5-1.8
			c0.9,0.6,2,0.9,3.1,0.9c0.8,0,1.4-0.2,1.9-0.5c0.4-0.4,0.7-0.8,0.7-1.5c0-0.5-0.2-1-0.6-1.4c-0.4-0.4-1-0.7-1.8-1
			c-2.3-0.9-3.5-2.1-3.5-3.8c0-1.1,0.4-2,1.2-2.7c0.8-0.7,1.9-1,3.3-1c1.2,0,2.2,0.2,3,0.6l-0.5,1.7c-0.8-0.4-1.6-0.6-2.5-0.6
			c-0.8,0-1.3,0.2-1.8,0.6c-0.4,0.3-0.5,0.7-0.5,1.2c0,0.5,0.2,1,0.6,1.3c0.4,0.3,1,0.7,1.9,1c1.1,0.5,2,1,2.5,1.6
			C88.3,27.5,88.6,28.3,88.6,29.2z"/>
		<path class="st1" d="M95.7,24.9h-2.4v4.7c0,1.2,0.4,1.8,1.2,1.8c0.4,0,0.7,0,0.9-0.1l0.1,1.6c-0.4,0.2-1,0.2-1.7,0.2
			c-0.8,0-1.5-0.3-2-0.8c-0.5-0.5-0.7-1.4-0.7-2.6v-4.8h-1.4v-1.6h1.4v-1.8l2.1-0.6v2.4h2.4V24.9z"/>
		<path class="st1" d="M106.3,28.1c0,1.5-0.4,2.7-1.3,3.6c-0.9,1-2.1,1.5-3.5,1.5c-1.4,0-2.5-0.5-3.4-1.4c-0.8-0.9-1.3-2.1-1.3-3.5
			c0-1.5,0.4-2.7,1.3-3.7c0.9-0.9,2-1.4,3.5-1.4c1.4,0,2.5,0.5,3.4,1.4C105.9,25.4,106.3,26.6,106.3,28.1z M104.1,28.1
			c0-0.9-0.2-1.6-0.6-2.3c-0.4-0.8-1.1-1.1-1.9-1.1c-0.9,0-1.5,0.4-2,1.1c-0.4,0.6-0.6,1.4-0.6,2.3c0,0.9,0.2,1.6,0.6,2.3
			c0.5,0.8,1.1,1.1,1.9,1.1c0.8,0,1.5-0.4,1.9-1.2C103.9,29.8,104.1,29,104.1,28.1z"/>
		<path class="st1" d="M113.2,25.2c-0.2,0-0.4-0.1-0.7-0.1c-0.8,0-1.3,0.3-1.7,0.9c-0.4,0.5-0.5,1.1-0.5,1.9v5h-2.1l0-6.6
			c0-1.1,0-2.1-0.1-3h1.9l0.1,1.8h0.1c0.2-0.6,0.6-1.1,1.1-1.5c0.5-0.3,1-0.5,1.5-0.5c0.2,0,0.4,0,0.5,0V25.2z"/>
		<path class="st1" d="M122.7,27.7c0,0.4,0,0.7-0.1,1h-6.4c0,0.9,0.3,1.7,0.9,2.2c0.5,0.4,1.2,0.7,2.1,0.7c0.9,0,1.8-0.2,2.6-0.5
			l0.3,1.5c-0.9,0.4-2,0.6-3.2,0.6c-1.5,0-2.7-0.4-3.5-1.3c-0.8-0.9-1.3-2.1-1.3-3.5c0-1.4,0.4-2.7,1.2-3.6c0.8-1,1.9-1.5,3.4-1.5
			c1.4,0,2.4,0.5,3.1,1.5C122.5,25.5,122.7,26.5,122.7,27.7z M120.7,27.1c0-0.6-0.1-1.2-0.4-1.6c-0.4-0.6-0.9-0.9-1.7-0.9
			c-0.7,0-1.3,0.3-1.7,0.9c-0.4,0.5-0.6,1-0.6,1.7H120.7z"/>
	</g>
	<g>
		<g>
			<path class="st1" d="M49.6,11.4c0,1.2-0.4,2.1-1.1,2.7c-0.7,0.5-1.6,0.8-2.8,0.8c-0.6,0-1.1,0-1.5-0.1V8.4
				c0.6-0.1,1.2-0.1,1.8-0.1c1.1,0,2,0.2,2.6,0.7C49.3,9.6,49.6,10.4,49.6,11.4z M48.5,11.5c0-0.8-0.2-1.3-0.6-1.8
				c-0.4-0.4-1-0.6-1.8-0.6c-0.3,0-0.6,0-0.8,0.1V14c0.1,0,0.4,0,0.7,0c0.8,0,1.4-0.2,1.9-0.7C48.3,13,48.5,12.3,48.5,11.5z"/>
			<path class="st1" d="M55.4,12.5c0,0.7-0.2,1.3-0.6,1.8c-0.4,0.5-1,0.7-1.7,0.7c-0.7,0-1.2-0.2-1.7-0.7c-0.4-0.5-0.6-1-0.6-1.7
				c0-0.7,0.2-1.3,0.6-1.8c0.4-0.5,1-0.7,1.7-0.7c0.7,0,1.2,0.2,1.7,0.7C55.2,11.2,55.4,11.7,55.4,12.5z M54.4,12.5
				c0-0.4-0.1-0.8-0.3-1.1c-0.2-0.4-0.5-0.6-0.9-0.6c-0.4,0-0.7,0.2-1,0.6c-0.2,0.3-0.3,0.7-0.3,1.1c0,0.4,0.1,0.8,0.3,1.1
				c0.2,0.4,0.5,0.6,1,0.6c0.4,0,0.7-0.2,0.9-0.6C54.3,13.3,54.4,12.9,54.4,12.5z"/>
			<path class="st1" d="M63.3,10.1l-1.5,4.7h-1l-0.6-2c-0.2-0.5-0.3-1-0.4-1.5h0c-0.1,0.5-0.2,1-0.4,1.5l-0.6,2h-1l-1.4-4.7h1.1
				l0.5,2.2c0.1,0.5,0.2,1,0.3,1.5h0c0.1-0.4,0.2-0.9,0.4-1.5l0.7-2.3h0.9l0.6,2.2c0.2,0.5,0.3,1.1,0.4,1.6h0c0.1-0.5,0.2-1,0.3-1.6
				l0.6-2.2H63.3z"/>
			<path class="st1" d="M68.7,14.9h-1v-2.7c0-0.8-0.3-1.2-1-1.2c-0.3,0-0.6,0.1-0.8,0.3c-0.2,0.2-0.3,0.5-0.3,0.8v2.8h-1v-3.4
				c0-0.4,0-0.9,0-1.3h0.9l0,0.7h0c0.1-0.2,0.3-0.4,0.5-0.6c0.3-0.2,0.6-0.3,1-0.3c0.4,0,0.8,0.1,1.1,0.4c0.4,0.3,0.5,0.9,0.5,1.6
				V14.9z"/>
			<path class="st1" d="M71.6,14.9h-1V8h1V14.9z"/>
			<path class="st1" d="M77.8,12.5c0,0.7-0.2,1.3-0.6,1.8c-0.4,0.5-1,0.7-1.7,0.7c-0.7,0-1.2-0.2-1.7-0.7c-0.4-0.5-0.6-1-0.6-1.7
				c0-0.7,0.2-1.3,0.6-1.8s1-0.7,1.7-0.7c0.7,0,1.2,0.2,1.7,0.7C77.6,11.2,77.8,11.7,77.8,12.5z M76.7,12.5c0-0.4-0.1-0.8-0.3-1.1
				c-0.2-0.4-0.5-0.6-0.9-0.6c-0.4,0-0.7,0.2-1,0.6c-0.2,0.3-0.3,0.7-0.3,1.1c0,0.4,0.1,0.8,0.3,1.1c0.2,0.4,0.5,0.6,1,0.6
				c0.4,0,0.7-0.2,0.9-0.6C76.6,13.3,76.7,12.9,76.7,12.5z"/>
			<path class="st1" d="M82.9,14.9h-0.9l-0.1-0.5h0c-0.3,0.4-0.8,0.7-1.4,0.7c-0.4,0-0.8-0.1-1.1-0.4c-0.2-0.3-0.4-0.6-0.4-1
				c0-0.6,0.2-1,0.7-1.3c0.5-0.3,1.2-0.5,2-0.4v-0.1c0-0.6-0.3-0.9-1-0.9c-0.5,0-0.9,0.1-1.2,0.3l-0.2-0.7c0.4-0.3,1-0.4,1.6-0.4
				c1.2,0,1.9,0.7,1.9,2v1.7C82.8,14.2,82.8,14.6,82.9,14.9z M81.8,13.2v-0.7c-1.2,0-1.7,0.3-1.7,1c0,0.2,0.1,0.4,0.2,0.6
				c0.1,0.1,0.3,0.2,0.5,0.2c0.2,0,0.4-0.1,0.6-0.2c0.2-0.1,0.3-0.3,0.4-0.6C81.8,13.4,81.8,13.3,81.8,13.2z"/>
			<path class="st1" d="M88.8,14.9h-0.9l0-0.8h0C87.5,14.7,87,15,86.3,15c-0.6,0-1-0.2-1.4-0.7c-0.4-0.4-0.6-1-0.6-1.7
				c0-0.8,0.2-1.4,0.6-1.9c0.4-0.4,0.9-0.7,1.5-0.7c0.6,0,1.1,0.2,1.3,0.6h0V8h1v5.6C88.8,14,88.8,14.5,88.8,14.9z M87.8,12.9v-0.8
				c0-0.1,0-0.2,0-0.3c-0.1-0.3-0.2-0.5-0.4-0.6c-0.2-0.2-0.4-0.3-0.7-0.3c-0.4,0-0.7,0.2-0.9,0.5c-0.2,0.3-0.3,0.7-0.3,1.2
				c0,0.5,0.1,0.8,0.3,1.1c0.2,0.3,0.5,0.5,0.9,0.5c0.3,0,0.6-0.1,0.8-0.4C87.7,13.5,87.8,13.2,87.8,12.9z"/>
			<path class="st1" d="M97.8,12.5c0,0.7-0.2,1.3-0.6,1.8c-0.4,0.5-1,0.7-1.7,0.7c-0.7,0-1.2-0.2-1.7-0.7c-0.4-0.5-0.6-1-0.6-1.7
				c0-0.7,0.2-1.3,0.6-1.8c0.4-0.5,1-0.7,1.7-0.7c0.7,0,1.2,0.2,1.7,0.7C97.6,11.2,97.8,11.7,97.8,12.5z M96.7,12.5
				c0-0.4-0.1-0.8-0.3-1.1c-0.2-0.4-0.5-0.6-0.9-0.6c-0.4,0-0.7,0.2-1,0.6c-0.2,0.3-0.3,0.7-0.3,1.1c0,0.4,0.1,0.8,0.3,1.1
				c0.2,0.4,0.5,0.6,1,0.6c0.4,0,0.7-0.2,0.9-0.6C96.6,13.3,96.7,12.9,96.7,12.5z"/>
			<path class="st1" d="M103.5,14.9h-1v-2.7c0-0.8-0.3-1.2-1-1.2c-0.3,0-0.6,0.1-0.8,0.3s-0.3,0.5-0.3,0.8v2.8h-1v-3.4
				c0-0.4,0-0.9,0-1.3h0.9l0,0.7h0c0.1-0.2,0.3-0.4,0.5-0.6c0.3-0.2,0.6-0.3,1-0.3c0.4,0,0.8,0.1,1.1,0.4c0.4,0.3,0.5,0.9,0.5,1.6
				V14.9z"/>
			<path class="st1" d="M110.5,10.9h-1.2v2.3c0,0.6,0.2,0.9,0.6,0.9c0.2,0,0.3,0,0.5,0l0,0.8c-0.2,0.1-0.5,0.1-0.8,0.1
				c-0.4,0-0.7-0.1-1-0.4c-0.2-0.3-0.3-0.7-0.3-1.3v-2.4h-0.7v-0.8h0.7V9.3l1-0.3v1.2h1.2V10.9z"/>
			<path class="st1" d="M116.1,14.9h-1v-2.7c0-0.8-0.3-1.3-0.9-1.3c-0.5,0-0.8,0.2-1,0.7c0,0.1,0,0.2,0,0.4v2.8h-1V8h1v2.8h0
				c0.3-0.5,0.8-0.8,1.4-0.8c0.4,0,0.8,0.1,1.1,0.4c0.4,0.4,0.5,0.9,0.5,1.6V14.9z"/>
			<path class="st1" d="M121.8,12.3c0,0.2,0,0.3,0,0.5h-3.1c0,0.5,0.2,0.8,0.5,1.1c0.3,0.2,0.6,0.3,1,0.3c0.5,0,0.9-0.1,1.3-0.2
				l0.2,0.7c-0.4,0.2-1,0.3-1.6,0.3c-0.7,0-1.3-0.2-1.7-0.6c-0.4-0.4-0.6-1-0.6-1.7c0-0.7,0.2-1.3,0.6-1.8c0.4-0.5,1-0.8,1.6-0.8
				c0.7,0,1.2,0.3,1.5,0.8C121.7,11.2,121.8,11.7,121.8,12.3z M120.8,12c0-0.3-0.1-0.6-0.2-0.8c-0.2-0.3-0.5-0.4-0.8-0.4
				c-0.3,0-0.6,0.1-0.8,0.4c-0.2,0.2-0.3,0.5-0.3,0.8H120.8z"/>
		</g>
	</g>
</g>
</svg>
