<?xml version="1.0" encoding="utf-8"?>
<svg version="1.1" id="artwork" xmlns="http://www.w3.org/2000/svg" xmlns:xlink="http://www.w3.org/1999/xlink" x="0px" y="0px"
	 viewBox="0 0 136.2 41.7" style="enable-background:new 0 0 136.2 41.7;" xml:space="preserve">
<style type="text/css">
	.st0{fill:#A6A6A6;}
	.st1{fill:#FFFFFF;stroke:#FFFFFF;stroke-width:0.2;stroke-miterlimit:10;}
	.st2{fill:#FFFFFF;}
	.st3{fill:url(#SVGID_1_);}
	.st4{fill:url(#SVGID_2_);}
	.st5{fill:url(#SVGID_3_);}
	.st6{fill:url(#SVGID_4_);}
	.st7{opacity:0.2;enable-background:new    ;}
	.st8{opacity:0.12;enable-background:new    ;}
	.st9{opacity:0.25;fill:#FFFFFF;enable-background:new    ;}
</style>
<g>
	<path d="M130.5,40.8H5.5c-2.8,0-5-2.2-5-5v-30c0-2.8,2.2-5,5-5h125c2.8,0,5,2.2,5,5v30C135.5,38.6,133.3,40.8,130.5,40.8z"/>
</g>
<g>
	<g>
		<path class="st0" d="M130.5,1.6c2.3,0,4.2,1.9,4.2,4.2v30c0,2.3-1.9,4.2-4.2,4.2H5.5c-2.3,0-4.2-1.9-4.2-4.2v-30
			c0-2.3,1.9-4.2,4.2-4.2H130.5 M130.5,0.8H5.5c-2.8,0-5,2.2-5,5v30c0,2.8,2.2,5,5,5h125c2.8,0,5-2.2,5-5v-30
			C135.5,3.1,133.3,0.8,130.5,0.8L130.5,0.8z"/>
	</g>
</g>
<g>
	<path class="st1" d="M47.9,11.1c0,0.8-0.2,1.5-0.7,2C46.6,13.7,45.9,14,45,14c-0.9,0-1.6-0.3-2.2-0.9c-0.6-0.6-0.9-1.3-0.9-2.2
		c0-0.9,0.3-1.6,0.9-2.2C43.4,8,44.1,7.7,45,7.7c0.4,0,0.8,0.1,1.2,0.3c0.4,0.2,0.7,0.4,0.9,0.7l-0.5,0.5c-0.4-0.5-0.9-0.7-1.6-0.7
		c-0.6,0-1.2,0.2-1.6,0.7c-0.5,0.4-0.7,1-0.7,1.7c0,0.7,0.2,1.3,0.7,1.7c0.5,0.4,1,0.7,1.6,0.7c0.7,0,1.2-0.2,1.7-0.7
		c0.3-0.3,0.5-0.7,0.5-1.2H45v-0.7h2.9C47.9,10.8,47.9,10.9,47.9,11.1z"/>
	<path class="st1" d="M52.5,8.6h-2.7v1.9h2.5v0.7h-2.5v1.9h2.7v0.7H49v-6h3.5V8.6z"/>
	<path class="st1" d="M55.8,13.8H55V8.6h-1.7V7.8h4.1v0.7h-1.7V13.8z"/>
	<path class="st1" d="M60.4,13.8v-6h0.8v6H60.4z"/>
	<path class="st1" d="M64.6,13.8h-0.8V8.6h-1.7V7.8h4.1v0.7h-1.7V13.8z"/>
	<path class="st1" d="M74.1,13.1c-0.6,0.6-1.3,0.9-2.2,0.9c-0.9,0-1.6-0.3-2.2-0.9c-0.6-0.6-0.9-1.3-0.9-2.2s0.3-1.6,0.9-2.2
		C70.3,8,71,7.7,71.9,7.7c0.9,0,1.6,0.3,2.2,0.9C74.7,9.2,75,10,75,10.8C75,11.7,74.7,12.5,74.1,13.1z M70.3,12.6
		c0.4,0.4,1,0.7,1.6,0.7s1.2-0.2,1.6-0.7c0.4-0.4,0.7-1,0.7-1.7c0-0.7-0.2-1.3-0.7-1.7c-0.4-0.4-1-0.7-1.6-0.7s-1.2,0.2-1.6,0.7
		c-0.4,0.4-0.7,1-0.7,1.7C69.6,11.5,69.8,12.1,70.3,12.6z"/>
	<path class="st1" d="M76.1,13.8v-6H77l2.9,4.7h0l0-1.2V7.8h0.8v6h-0.8l-3.1-4.9h0l0,1.2v3.7H76.1z"/>
</g>
<path class="st2" d="M68.6,22.6c-2.4,0-4.3,1.8-4.3,4.3c0,2.4,1.9,4.3,4.3,4.3c2.4,0,4.3-1.8,4.3-4.3C72.9,24.4,71,22.6,68.6,22.6z
	 M68.6,29.4c-1.3,0-2.4-1.1-2.4-2.6c0-1.5,1.1-2.6,2.4-2.6c1.3,0,2.4,1,2.4,2.6C71,28.4,69.9,29.4,68.6,29.4z M59.3,22.6
	c-2.4,0-4.3,1.8-4.3,4.3c0,2.4,1.9,4.3,4.3,4.3c2.4,0,4.3-1.8,4.3-4.3C63.6,24.4,61.7,22.6,59.3,22.6z M59.3,29.4
	c-1.3,0-2.4-1.1-2.4-2.6c0-1.5,1.1-2.6,2.4-2.6c1.3,0,2.4,1,2.4,2.6C61.7,28.4,60.6,29.4,59.3,29.4z M48.2,23.9v1.8h4.3
	c-0.1,1-0.5,1.8-1,2.3c-0.6,0.6-1.6,1.3-3.3,1.3c-2.7,0-4.7-2.1-4.7-4.8s2.1-4.8,4.7-4.8c1.4,0,2.5,0.6,3.3,1.3l1.3-1.3
	c-1.1-1-2.5-1.8-4.5-1.8c-3.6,0-6.7,3-6.7,6.6c0,3.6,3.1,6.6,6.7,6.6c2,0,3.4-0.6,4.6-1.9c1.2-1.2,1.6-2.9,1.6-4.2
	c0-0.4,0-0.8-0.1-1.1H48.2z M93.6,25.3c-0.4-1-1.4-2.7-3.6-2.7c-2.2,0-4,1.7-4,4.3c0,2.4,1.8,4.3,4.2,4.3c1.9,0,3.1-1.2,3.5-1.9
	l-1.4-1c-0.5,0.7-1.1,1.2-2.1,1.2c-1,0-1.6-0.4-2.1-1.3l5.7-2.4L93.6,25.3z M87.8,26.7c0-1.6,1.3-2.5,2.2-2.5c0.7,0,1.4,0.4,1.6,0.9
	L87.8,26.7z M83.1,30.8H85V18.3h-1.9V30.8z M80.1,23.5L80.1,23.5c-0.5-0.5-1.3-1-2.3-1c-2.1,0-4.1,1.9-4.1,4.3
	c0,2.4,1.9,4.2,4.1,4.2c1,0,1.8-0.5,2.2-1h0.1v0.6c0,1.6-0.9,2.5-2.3,2.5c-1.1,0-1.9-0.8-2.1-1.5L74,32.4c0.5,1.1,1.7,2.5,3.8,2.5
	c2.2,0,4-1.3,4-4.4v-7.6h-1.8V23.5z M77.9,29.4c-1.3,0-2.4-1.1-2.4-2.6c0-1.5,1.1-2.6,2.4-2.6c1.3,0,2.3,1.1,2.3,2.6
	C80.2,28.3,79.2,29.4,77.9,29.4z M102.3,18.3h-4.5v12.5h1.9v-4.7h2.6c2.1,0,4.1-1.5,4.1-3.9S104.4,18.3,102.3,18.3z M102.4,24.4
	h-2.7v-4.3h2.7c1.4,0,2.2,1.2,2.2,2.1C104.5,23.2,103.7,24.4,102.4,24.4z M113.9,22.6c-1.4,0-2.8,0.6-3.3,1.9l1.7,0.7
	c0.4-0.7,1-0.9,1.7-0.9c1,0,1.9,0.6,2,1.6V26c-0.3-0.2-1.1-0.5-1.9-0.5c-1.8,0-3.6,1-3.6,2.8c0,1.7,1.5,2.8,3.1,2.8
	c1.3,0,1.9-0.6,2.4-1.2h0.1v1h1.8V26C117.7,23.8,116,22.6,113.9,22.6z M113.7,29.4c-0.6,0-1.5-0.3-1.5-1.1c0-1,1.1-1.3,2-1.3
	c0.8,0,1.2,0.2,1.7,0.4C115.7,28.6,114.7,29.4,113.7,29.4z M124.2,22.8l-2.1,5.4H122l-2.2-5.4h-2l3.3,7.6l-1.9,4.2h1.9l5.1-11.8
	H124.2z M107.4,30.8h1.9V18.3h-1.9V30.8z"/>
<g>
	
		<linearGradient id="SVGID_1_" gradientUnits="userSpaceOnUse" x1="22.2997" y1="174.1236" x2="5.5173" y2="157.3412" gradientTransform="matrix(1 0 0 -1 0 183.6667)">
		<stop  offset="0" style="stop-color:#00A0FF"/>
		<stop  offset="6.574450e-03" style="stop-color:#00A1FF"/>
		<stop  offset="0.2601" style="stop-color:#00BEFF"/>
		<stop  offset="0.5122" style="stop-color:#00D2FF"/>
		<stop  offset="0.7604" style="stop-color:#00DFFF"/>
		<stop  offset="1" style="stop-color:#00E3FF"/>
	</linearGradient>
	<path class="st3" d="M10.9,8.4c-0.3,0.3-0.5,0.8-0.5,1.4v22.1c0,0.6,0.2,1.1,0.5,1.4l0.1,0.1L23.4,21v-0.1v-0.1L10.9,8.4L10.9,8.4z
		"/>
	
		<linearGradient id="SVGID_2_" gradientUnits="userSpaceOnUse" x1="34.3344" y1="162.8319" x2="10.1375" y2="162.8319" gradientTransform="matrix(1 0 0 -1 0 183.6667)">
		<stop  offset="0" style="stop-color:#FFE000"/>
		<stop  offset="0.4087" style="stop-color:#FFBD00"/>
		<stop  offset="0.7754" style="stop-color:#FFA500"/>
		<stop  offset="1" style="stop-color:#FF9C00"/>
	</linearGradient>
	<path class="st4" d="M27.5,25.1L23.4,21v-0.1v-0.1l4.1-4.1l0.1,0.1l4.9,2.8c1.4,0.8,1.4,2.1,0,2.9L27.5,25.1L27.5,25.1z"/>
	
		<linearGradient id="SVGID_3_" gradientUnits="userSpaceOnUse" x1="25.327" y1="160.5372" x2="2.5687" y2="137.779" gradientTransform="matrix(1 0 0 -1 0 183.6667)">
		<stop  offset="0" style="stop-color:#FF3A44"/>
		<stop  offset="1" style="stop-color:#C31162"/>
	</linearGradient>
	<path class="st5" d="M27.6,25.1l-4.2-4.2L10.9,33.3c0.5,0.5,1.2,0.5,2.1,0.1L27.6,25.1"/>
	
		<linearGradient id="SVGID_4_" gradientUnits="userSpaceOnUse" x1="7.7973" y1="182.6572" x2="17.9599" y2="172.4946" gradientTransform="matrix(1 0 0 -1 0 183.6667)">
		<stop  offset="0" style="stop-color:#32A071"/>
		<stop  offset="6.850000e-02" style="stop-color:#2DA771"/>
		<stop  offset="0.4762" style="stop-color:#15CF74"/>
		<stop  offset="0.8009" style="stop-color:#06E775"/>
		<stop  offset="1" style="stop-color:#00F076"/>
	</linearGradient>
	<path class="st6" d="M27.6,16.6L13,8.3c-0.9-0.5-1.6-0.4-2.1,0.1l12.5,12.5L27.6,16.6z"/>
	<g>
		<path class="st7" d="M27.5,25L13,33.2c-0.8,0.5-1.5,0.4-2,0l0,0l-0.1,0.1l0,0l0.1,0.1l0,0c0.5,0.4,1.2,0.5,2,0L27.5,25L27.5,25z"
			/>
		<path class="st8" d="M10.9,33.2c-0.3-0.3-0.5-0.8-0.5-1.4v0.1c0,0.6,0.2,1.1,0.5,1.4V33.2L10.9,33.2z"/>
	</g>
	<path class="st8" d="M32.5,22.1l-5,2.8l0.1,0.1l4.9-2.8c0.7-0.4,1-0.9,1-1.4l0,0C33.5,21.3,33.1,21.8,32.5,22.1z"/>
	<path class="st9" d="M13,8.5l19.5,11.1c0.6,0.4,1,0.8,1,1.3l0,0c0-0.5-0.3-1-1-1.4L13,8.3c-1.4-0.8-2.5-0.1-2.5,1.5v0.1
		C10.5,8.3,11.6,7.7,13,8.5z"/>
</g>
</svg>
