<svg width="24" height="24" viewBox="0 0 24 24" fill="none" xmlns="http://www.w3.org/2000/svg">
<path fill-rule="evenodd" clip-rule="evenodd" d="M23 15C23.5523 15 24 14.5523 24 14V8C24 7.44772 23.5523 7 23 7H17.5V15H23ZM22.5 8.5H17.5V13.5H22.5V8.5Z" fill="#202D38"/>
<path fill-rule="evenodd" clip-rule="evenodd" d="M17.5 7V8.5L16.25 9V5.68H2C1.72386 5.68 1.5 5.90386 1.5 6.18V10C0.91609 10.3194 0.298311 10.9034 0 11.5V6C0 4.89543 0.895431 4 2 4H16.5C17.0523 4 17.5 4.44772 17.5 5V7ZM16.25 13L17.5 13.5V15V17C17.5 17.5523 17.0523 18 16.5 18H13C13 18 13.1 17.6938 13.1 17.16C13.1 16.6262 13 16.32 13 16.32H16.25V13Z" fill="#202D38"/>
<path d="M17.5 13.5V8.5L16.25 9V13L17.5 13.5Z" fill="#202D38"/>
<path d="M3.60181 20.8185C3.47403 20.8185 3.34625 20.7753 3.25778 20.6889C2.40263 19.9372 1.94065 19.4533 1.28208 18.4077C0.603857 17.3449 0.25 16.0487 0.25 14.6575C0.25 12.0911 2.74666 10 5.81342 10C8.88018 10 11.3768 12.0911 11.3768 14.6575C11.3768 14.8994 11.1606 15.0896 10.8854 15.0896C10.6101 15.0896 10.3939 14.8994 10.3939 14.6575C10.3939 12.5664 8.33956 10.8641 5.81342 10.8641C3.28727 10.8641 1.23294 12.5664 1.23294 14.6575C1.23294 15.9018 1.54748 17.0511 2.14707 17.9843C2.77615 18.978 3.20864 19.4014 3.9655 20.0754C4.15225 20.2482 4.15225 20.5161 3.9655 20.6889C3.85737 20.7753 3.72959 20.8185 3.60181 20.8185ZM10.6495 19.22C9.47977 19.22 8.44768 18.9607 7.60236 18.4509C6.13778 17.5782 5.26297 16.161 5.26297 14.6575C5.26297 14.4156 5.47922 14.2255 5.75444 14.2255C6.02966 14.2255 6.24591 14.4156 6.24591 14.6575C6.24591 15.8759 6.95362 17.0251 8.1528 17.7337C8.85069 18.1485 9.66652 18.3472 10.6495 18.3472C10.8854 18.3472 11.2785 18.3213 11.6717 18.2608C11.9371 18.2176 12.1927 18.3731 12.2418 18.6151C12.291 18.8484 12.114 19.0731 11.8388 19.1163C11.2785 19.2113 10.7871 19.22 10.6495 19.22Z" fill="#202D38"/>
<path d="M8.67376 21C8.63444 21 8.58529 20.9914 8.54598 20.9827C6.98311 20.6025 5.96086 20.0927 4.88946 19.1681C3.51335 17.967 2.75649 16.3684 2.75649 14.6575C2.75649 13.2577 4.11294 12.117 5.78393 12.117C7.45492 12.117 8.81137 13.2577 8.81137 14.6575C8.81137 15.5821 9.7255 16.3339 10.8559 16.3339C10.8559 16.3339 11.3768 16.3339 11.3768 16.7545C11.3768 17.1752 10.8559 17.1893 10.8559 17.1893C9.18488 17.1893 7.82843 16.0487 7.82843 14.6489C7.82843 13.7243 6.9143 12.9725 5.78393 12.9725C4.65355 12.9725 3.73942 13.7243 3.73942 14.6489C3.73942 16.1265 4.38816 17.509 5.57751 18.546C6.5113 19.3582 7.40577 19.8075 8.79171 20.1445C9.0571 20.205 9.20454 20.447 9.13574 20.6716C9.08659 20.8704 8.88017 21 8.67376 21Z" fill="#202D38"/>
</svg>
