<?xml version="1.0" encoding="UTF-8" standalone="no"?>
<svg
   xmlns:dc="http://purl.org/dc/elements/1.1/"
   xmlns:cc="http://creativecommons.org/ns#"
   xmlns:rdf="http://www.w3.org/1999/02/22-rdf-syntax-ns#"
   xmlns:svg="http://www.w3.org/2000/svg"
   xmlns="http://www.w3.org/2000/svg"
   xmlns:sodipodi="http://sodipodi.sourceforge.net/DTD/sodipodi-0.dtd"
   xmlns:inkscape="http://www.inkscape.org/namespaces/inkscape"
   viewBox="0 0 120 120"
   version="1.1"
   id="svg45"
   sodipodi:docname="icon-google-safe-browsing.svg"
   inkscape:version="1.0.2 (e86c870879, 2021-01-15)">
  <metadata
     id="metadata49">
    <rdf:RDF>
      <cc:Work
         rdf:about="">
        <dc:format>image/svg+xml</dc:format>
        <dc:type
           rdf:resource="http://purl.org/dc/dcmitype/StillImage" />
      </cc:Work>
    </rdf:RDF>
  </metadata>
  <sodipodi:namedview
     pagecolor="#ffffff"
     bordercolor="#666666"
     borderopacity="1"
     objecttolerance="10"
     gridtolerance="10"
     guidetolerance="10"
     inkscape:pageopacity="0"
     inkscape:pageshadow="2"
     inkscape:window-width="1920"
     inkscape:window-height="992"
     id="namedview47"
     showgrid="false"
     inkscape:zoom="4.4168554"
     inkscape:cx="-38.12914"
     inkscape:cy="74.851404"
     inkscape:window-x="1080"
     inkscape:window-y="505"
     inkscape:window-maximized="0"
     inkscape:current-layer="svg45"
     inkscape:document-rotation="0" />
  <defs
     id="defs19">
    <style
       id="style2">.cls-1{fill:none;}.cls-2{fill:#66bb6a;}.cls-3{fill:#388e3c;}.cls-4{clip-path:url(#clip-path);}.cls-5{fill:url(#linear-gradient);}.cls-6{clip-path:url(#clip-path-2);}.cls-7{fill:#fafafa;}.cls-8{fill:#e0e0e0;}.cls-9{fill:#fff;}</style>
    <clipPath
       id="clip-path"
       transform="translate(-587.48 -183.89)">
      <path
         class="cls-1"
         d="M641.9,191.2c-22.81,0-42.56,9.37-50.56,12.3v13.28c0,36.91.14,62.4,21.61,83.86,8.27,8.27,28.39,21.82,28.39,21.82s20.28-13.54,28.56-21.82c21.51-21.51,21.44-44.1,21.44-78.93V203.34C681.33,200.25,663.38,191.2,641.9,191.2Z"
         id="path4" />
    </clipPath>
    <linearGradient
       id="linear-gradient"
       x1="54.1"
       y1="18.2"
       x2="54.1"
       y2="25.55"
       gradientUnits="userSpaceOnUse">
      <stop
         offset="0"
         stop-color="#263238"
         stop-opacity="0.35"
         id="stop7" />
      <stop
         offset="0.42"
         stop-color="#263238"
         stop-opacity="0.15"
         id="stop9" />
      <stop
         offset="0.89"
         stop-color="#263238"
         stop-opacity="0.02"
         id="stop11" />
      <stop
         offset="1"
         stop-color="#263238"
         stop-opacity="0"
         id="stop13" />
    </linearGradient>
    <clipPath
       id="clip-path-2"
       transform="translate(-587.48 -183.89)">
      <path
         class="cls-1"
         d="M641.39,205.23c-14.08,0-27.22,9.82-27.22,9.82s0.9,20.39.9,28.57c0,17.68,3.37,32.29,11.23,43.2,4.44,6.17,15.1,16.26,15.1,16.26s10.4-10.09,14.84-16.26c7.86-10.91,11-25.52,11-43.2,0-8.18,1.08-28.57,1.08-28.57S654.8,205.23,641.39,205.23Z"
         id="path16" />
    </clipPath>
  </defs>
  <path
     class="cls-2"
     d="m 10.262425,17.286826 v 11.564319 c 0,32.141496 0.0696,54.338374 21.417807,73.025895 8.223086,7.20158 28.298551,19.00102 28.298551,19.00102 V 6.5671881 c -20.88087,0 -41.761741,8.1681719 -49.716358,10.7196379 z"
     id="path21"
     style="stroke-width:0.93052" />
  <path
     class="cls-3"
     d="M 109.69514,17.138788 C 99.751865,14.439285 80.859654,6.5671881 59.978783,6.5671881 V 120.86935 c 0,0 20.164955,-11.79073 28.397984,-19.00101 C 109.76474,83.137269 109.69514,63.465734 109.69514,33.135517 Z"
     id="path23"
     style="stroke-width:0.93052" />
  <g
     class="cls-4"
     clip-path="url(#clip-path)"
     id="g27"
     transform="matrix(0.99432717,0,0,0.87080725,6.4342654,0.20158705)">
    <rect
       class="cls-5"
       y="19.6"
       width="108.2"
       height="8.8999996"
       id="rect25"
       style="fill:url(#linear-gradient)"
       x="0" />
  </g>
  <g
     class="cls-6"
     clip-path="url(#clip-path-2)"
     id="g37"
     transform="matrix(0.99432717,0,0,0.87080725,6.4342654,0.20158705)">
    <circle
       class="cls-7"
       cx="54.299999"
       cy="121.35"
       r="16.26"
       id="circle29" />
    <path
       class="cls-7"
       d="m 641.78,333.41 a 27.89,27.89 0 1 1 27.89,-27.89 27.92,27.92 0 0 1 -27.89,27.89 z m 0,-50.32 a 22.43,22.43 0 1 0 22.43,22.43 22.46,22.46 0 0 0 -22.43,-22.43 z"
       transform="translate(-587.48,-183.89)"
       id="path31" />
    <path
       class="cls-7"
       d="m 641.78,345.35 a 39.83,39.83 0 1 1 39.83,-39.83 39.87,39.87 0 0 1 -39.83,39.83 z m 0,-73.93 a 34.1,34.1 0 1 0 34.1,34.1 34.14,34.14 0 0 0 -34.1,-34.09 z"
       transform="translate(-587.48,-183.89)"
       id="path33" />
    <circle
       class="cls-7"
       cx="53.52"
       cy="55.869999"
       r="16.48"
       id="circle35" />
  </g>
  <path
     class="cls-8"
     d="M 109.69514,16.746924 V 7.8646909 c 0,-3.1958626 -5.04124,-7.66310385 -9.54554,-7.66310385 H 18.982674 c -4.494359,0 -8.710306,4.46724125 -8.710306,7.66310385 v 8.8822331 h 99.432712 z"
     id="path39"
     style="stroke-width:0.93052" />
  <ellipse
     class="cls-9"
     cx="22.532421"
     cy="9.5105152"
     id="circle41"
     rx="2.923322"
     ry="2.5601735"
     style="stroke-width:0.93052" />
  <ellipse
     class="cls-9"
     cx="33.231384"
     cy="9.5105152"
     id="circle43"
     rx="2.923322"
     ry="2.5601735"
     style="stroke-width:0.93052" />
</svg>
