<?xml version="1.0" encoding="utf-8"?>
<svg xmlns="http://www.w3.org/2000/svg" viewBox="0 0 50 50"><path style="fill: #fff" d="M 2.75 1.8125 C 2.707031 1.820313 2.664063 1.832031 2.625 1.84375 C 2.25 1.910156 1.949219 2.183594 1.84375 2.546875 C 1.738281 2.914063 1.847656 3.304688 2.125 3.5625 L 46.4375 47.875 C 46.835938 48.273438 47.476563 48.273438 47.875 47.875 C 48.273438 47.476563 48.273438 46.835938 47.875 46.4375 L 38.78125 37.34375 C 39.25 35.890625 39.585938 34.519531 39.78125 33.625 C 45.207031 32.464844 49 30.574219 49 28 C 49 24.820313 43.542969 23.070313 38.71875 22.15625 C 37.21875 13.839844 32.652344 8 30 8 C 28.671875 8 27.730469 8.632813 26.90625 9.1875 C 26.222656 9.648438 25.683594 10 25 10 C 24.3125 10 23.738281 9.601563 23.0625 9.15625 C 22.238281 8.609375 21.292969 8 20 8 C 18.410156 8 16.238281 9.816406 14.40625 12.96875 L 3.5625 2.125 C 3.355469 1.902344 3.054688 1.789063 2.75 1.8125 Z M 12.65625 16.71875 C 12.058594 18.351563 11.574219 20.183594 11.25 22.1875 C 6.433594 23.105469 1 24.828125 1 28 C 1 30.566406 4.78125 32.464844 10.1875 33.625 C 10.699219 36.441406 12.378906 44 15.75 44 C 20.554688 44 22.199219 40.53125 24.8125 40.53125 C 27.425781 40.53125 29.613281 44 33.875 44 C 35.183594 44 36.300781 42.8125 37.1875 41.21875 L 34 38.0625 C 33.527344 39.273438 32.558594 40.449219 30.625 40.09375 C 28.972656 39.789063 27.8125 38.859375 27.8125 38.0625 C 27.8125 37.460938 30.0625 36.828125 32.3125 36.375 L 22.875 26.9375 C 16.863281 26.601563 13.097656 24.957031 13 24.03125 C 13.097656 23.152344 13.222656 22.351563 13.375 21.5625 C 14.777344 22.550781 17.097656 23.179688 19.53125 23.5625 Z M 36.5625 21.59375 C 36.726563 22.375 36.894531 23.179688 37 24.03125 C 36.980469 24.183594 36.835938 24.351563 36.71875 24.46875 C 35.574219 25.609375 32.207031 26.507813 28.28125 26.84375 L 25.4375 24 C 29.550781 23.957031 34.269531 23.195313 36.5625 21.59375 Z M 14.625 36 C 17.273438 36.429688 21.25 37.265625 21.25 38.0625 C 21.25 38.859375 20.089844 39.789063 18.4375 40.09375 C 15.144531 40.703125 14.625 36.796875 14.625 36 Z"></path></svg>
