<?xml version="1.0" encoding="utf-8"?>
<svg xmlns="http://www.w3.org/2000/svg" viewBox="0 0 50 50">
    <path d="M 3 1 C 1.898438 1 1 1.898438 1 3 L 1 24 L 24 24 L 24 1 Z M 26 1 L 26 24 L 49 24 L 49 3 C 49 1.898438 48.101563 1 47 1 Z M 13 7 C 13.550781 7 14 7.449219 14 8 L 14 12 L 18 12 C 18.550781 12 19 12.449219 19 13 C 19 13.550781 18.550781 14 18 14 L 14 14 L 14 18 C 14 18.550781 13.550781 19 13 19 C 12.449219 19 12 18.550781 12 18 L 12 14 L 8 14 C 7.449219 14 7 13.550781 7 13 C 7 12.449219 7.449219 12 8 12 L 12 12 L 12 8 C 12 7.449219 12.449219 7 13 7 Z M 33 12 L 43 12 C 43.554688 12 44 12.449219 44 13 C 44 13.550781 43.554688 14 43 14 L 33 14 C 32.445313 14 32 13.550781 32 13 C 32 12.449219 32.445313 12 33 12 Z M 1 26 L 1 47 C 1 48.101563 1.898438 49 3 49 L 24 49 L 24 26 Z M 26 26 L 26 49 L 47 49 C 48.101563 49 49 48.101563 49 47 L 49 26 Z M 9.46875 33.46875 C 9.722656 33.46875 9.960938 33.554688 10.15625 33.75 L 13 36.59375 L 15.84375 33.75 C 16.234375 33.359375 16.859375 33.359375 17.25 33.75 C 17.640625 34.140625 17.640625 34.765625 17.25 35.15625 L 14.40625 38 L 17.25 40.84375 C 17.640625 41.234375 17.640625 41.859375 17.25 42.25 C 17.054688 42.445313 16.789063 42.53125 16.53125 42.53125 C 16.273438 42.53125 16.039063 42.445313 15.84375 42.25 L 13 39.40625 L 10.15625 42.25 C 9.960938 42.445313 9.726563 42.53125 9.46875 42.53125 C 9.210938 42.53125 8.945313 42.445313 8.75 42.25 C 8.359375 41.859375 8.359375 41.234375 8.75 40.84375 L 11.59375 38 L 8.75 35.15625 C 8.359375 34.765625 8.359375 34.140625 8.75 33.75 C 8.945313 33.554688 9.214844 33.46875 9.46875 33.46875 Z M 33 34 L 43 34 C 43.554688 34 44 34.445313 44 35 C 44 35.554688 43.554688 36 43 36 L 33 36 C 32.445313 36 32 35.554688 32 35 C 32 34.445313 32.445313 34 33 34 Z M 33 40 L 43 40 C 43.554688 40 44 40.445313 44 41 C 44 41.554688 43.554688 42 43 42 L 33 42 C 32.445313 42 32 41.554688 32 41 C 32 40.445313 32.445313 40 33 40 Z"></path>
</svg>