<?xml version="1.0" encoding="utf-8"?>
<svg xmlns="http://www.w3.org/2000/svg" viewBox="0 0 64 64">
    <path d="M 8 8 L 8 20 L 56 20 L 56 8 L 46 8 L 46 9 C 46 10.657 44.657 12 43 12 C 41.343 12 40 10.657 40 9 L 40 8 L 24 8 L 24 9 C 24 10.657 22.657 12 21 12 C 19.343 12 18 10.657 18 9 L 18 8 L 8 8 z M 8 22 L 8 56 L 35.509766 56 C 35.169766 54.72 35 53.38 35 52 L 12 52 L 12 22.169922 L 8 22 z M 52 23.830078 L 52 36.029297 C 53.39 36.119297 54.73 36.380781 56 36.800781 L 56 24 L 52 23.830078 z M 19 29 L 19 35 L 25 35 L 25 29 L 19 29 z M 29 29 L 29 35 L 35 35 L 35 29 L 29 29 z M 39 29 L 39 35 L 45 35 L 45 29 L 39 29 z M 51 38 C 43.82 38 38 43.82 38 51 C 38 58.18 43.82 64 51 64 C 58.18 64 64 58.18 64 51 C 64 43.82 58.18 38 51 38 z M 19 39 L 19 45 L 25 45 L 25 39 L 19 39 z M 29 39 L 29 45 L 35 45 L 35 39 L 29 39 z M 49.945312 42.564453 L 52.054688 42.564453 L 52.054688 44.021484 C 53.105688 44.130484 54.041359 44.432531 54.818359 45.019531 L 54.113281 47.533203 C 53.217281 46.790203 52.361406 46.484375 51.066406 46.484375 C 49.961406 46.484375 49.199219 46.866031 49.199219 47.457031 C 49.199219 48.275031 50.057859 48.695563 51.505859 49.476562 C 53.810859 50.713563 55.390625 51.875766 55.390625 54.009766 C 55.390625 56.324766 54.130688 57.577828 52.054688 57.923828 L 52.054688 59.433594 L 49.945312 59.433594 L 49.945312 57.974609 C 48.765313 57.835609 47.519375 57.411422 46.609375 56.732422 L 47.560547 54.351562 C 48.493547 55.056562 49.636891 55.570312 50.837891 55.570312 C 52.208891 55.570312 52.837891 54.904 52.837891 53.875 C 52.837891 52.962 51.999719 52.541891 50.761719 51.837891 C 49.218719 50.961891 46.779297 50.217781 46.779297 47.550781 C 46.779297 45.628781 48.187312 44.440937 49.945312 44.085938 L 49.945312 42.564453 z"></path>
</svg>