<?xml version="1.0" encoding="utf-8"?>
<svg xmlns="http://www.w3.org/2000/svg" viewBox="0 0 48 48">
    <path style="fill: #fff" d="M 12 4 C 9.519 4 7.5 6.019 7.5 8.5 L 7.5 39.5 C 7.5 41.981 9.519 44 12 44 L 32.5 44 L 32.5 36.976562 L 27.726562 33.259766 C 26.308563 32.142766 25.5 30.475641 25.5 28.681641 L 25.5 27 C 25.5 25.346 26.846 24 28.5 24 L 39.5 24 L 39.5 20 L 28 20 C 25.519 20 23.5 17.981 23.5 15.5 L 23.5 4 L 12 4 z M 26.5 4.8789062 L 26.5 15.5 C 26.5 16.327 27.173 17 28 17 L 38.621094 17 L 26.5 4.8789062 z M 28.5 26 C 27.948 26 27.5 26.448 27.5 27 L 27.5 28.681641 C 27.5 29.851641 28.036078 30.957641 28.955078 31.681641 L 34.5 36 L 34.5 45.263672 C 34.5 45.878672 35.210406 46.222844 35.691406 45.839844 L 38.121094 43.90625 C 38.360094 43.71625 38.498047 43.428047 38.498047 43.123047 L 38.498047 36 L 44.044922 31.681641 C 44.963922 30.957641 45.498047 29.850641 45.498047 28.681641 L 45.498047 27 C 45.499047 26.448 45.052 26 44.5 26 L 28.5 26 z"></path>
</svg>