<?xml version="1.0" encoding="utf-8"?>
<svg xmlns="http://www.w3.org/2000/svg" viewBox="0 0 64 64">
    <path d="M 1 6 A 1 1 0 0 0 0 7 L 0 19 A 1 1 0 0 0 1 20 L 4 20 L 59 20 L 59 56 L 5 56 L 5 22 L 3 22 L 3 57 A 1 1 0 0 0 4 58 L 60 58 A 1 1 0 0 0 61 57 L 61 20 L 63 20 A 1 1 0 0 0 64 19 L 64 7 A 1 1 0 0 0 63 6 L 1 6 z M 2 8 L 62 8 L 62 18 L 60 18 L 4 18 L 2 18 L 2 8 z M 52 10 L 52 12 L 54 12 L 54 10 L 52 10 z M 56 10 L 56 12 L 58 12 L 58 10 L 56 10 z M 24 23 A 4 4 0 0 0 24 31 L 40 31 A 4 4 0 0 0 40 23 L 24 23 z M 24 25 L 40 25 A 2 2 0 0 1 40 29 L 24 29 A 2 2 0 0 1 24 25 z"></path>
</svg>