<?xml version="1.0" encoding="utf-8"?>
<svg xmlns="http://www.w3.org/2000/svg" viewBox="0 0 50 50">
    <path d="M 16 2 C 14.300781 2 13 3.300781 13 5 L 13 7 L 3 7 C 2.96875 7 2.9375 7 2.90625 7 C 2.875 7 2.84375 7 2.8125 7 C 2.261719 7.050781 1.855469 7.542969 1.90625 8.09375 C 1.957031 8.644531 2.449219 9.050781 3 9 L 13 9 L 13 11 C 13 12.699219 14.300781 14 16 14 L 18 14 C 19.699219 14 21 12.699219 21 11 L 21 5 C 21 3.300781 19.699219 2 18 2 Z M 22 7 L 22 9 L 47 9 C 47.359375 9.003906 47.695313 8.816406 47.878906 8.503906 C 48.058594 8.191406 48.058594 7.808594 47.878906 7.496094 C 47.695313 7.183594 47.359375 6.996094 47 7 Z M 34 19 C 32.300781 19 31 20.300781 31 22 L 31 24 L 3 24 C 2.96875 24 2.9375 24 2.90625 24 C 2.875 24 2.84375 24 2.8125 24 C 2.261719 24.050781 1.855469 24.542969 1.90625 25.09375 C 1.957031 25.644531 2.449219 26.050781 3 26 L 31 26 L 31 28 C 31 29.699219 32.300781 31 34 31 L 36 31 C 37.699219 31 39 29.699219 39 28 L 39 22 C 39 20.300781 37.699219 19 36 19 Z M 40 24 L 40 26 L 47 26 C 47.359375 26.003906 47.695313 25.816406 47.878906 25.503906 C 48.058594 25.191406 48.058594 24.808594 47.878906 24.496094 C 47.695313 24.183594 47.359375 23.996094 47 24 Z M 13 36 C 11.300781 36 10 37.300781 10 39 L 10 41 L 3 41 C 2.96875 41 2.9375 41 2.90625 41 C 2.875 41 2.84375 41 2.8125 41 C 2.261719 41.050781 1.855469 41.542969 1.90625 42.09375 C 1.957031 42.644531 2.449219 43.050781 3 43 L 10 43 L 10 45 C 10 46.699219 11.300781 48 13 48 L 15 48 C 16.699219 48 18 46.699219 18 45 L 18 39 C 18 37.300781 16.699219 36 15 36 Z M 19 41 L 19 43 L 47 43 C 47.359375 43.003906 47.695313 42.816406 47.878906 42.503906 C 48.058594 42.191406 48.058594 41.808594 47.878906 41.496094 C 47.695313 41.183594 47.359375 40.996094 47 41 Z"></path>
</svg>