<?xml version="1.0" encoding="utf-8"?>
<svg xmlns="http://www.w3.org/2000/svg" viewBox="0 0 50 50"><path style="fill: #fff" d="M 18.6875 0 C 13.523438 0 11.207031 9.027344 9.375 16.5625 C 3.152344 17.976563 0 19.96875 0 22.5 C 0 24.917969 3.039063 26.773438 7.59375 28.03125 C 7.488281 28.386719 7.40625 28.804688 7.40625 29.3125 C 7.40625 29.867188 7.519531 30.476563 7.71875 31.125 C 5.738281 32.214844 2.894531 34.269531 0.1875 38 C 0.03125 38.21875 -0.0429688 38.484375 0 38.75 C 0.0429688 39.015625 0.21875 39.253906 0.4375 39.40625 L 9.34375 45.71875 L 7.21875 48.375 C 6.980469 48.675781 6.929688 49.089844 7.09375 49.4375 C 7.257813 49.78125 7.617188 50 8 50 L 42 50 C 42.007813 50 42.023438 50 42.03125 50 C 42.585938 50 43.03125 49.554688 43.03125 49 C 43.03125 48.699219 42.898438 48.433594 42.6875 48.25 L 40.65625 45.71875 L 49.5625 39.40625 C 49.78125 39.25 49.957031 39.011719 50 38.75 C 50.042969 38.484375 49.96875 38.21875 49.8125 38 C 47.105469 34.265625 44.257813 32.214844 42.28125 31.125 C 42.484375 30.453125 42.59375 29.785156 42.59375 29.1875 C 42.59375 28.707031 42.53125 28.339844 42.4375 28 C 46.972656 26.742188 50 24.910156 50 22.5 C 50 19.96875 46.851563 17.976563 40.625 16.5625 L 40.53125 16.21875 C 40.261719 15.15625 39.976563 14.074219 39.6875 13 C 39.6875 12.972656 39.6875 12.9375 39.6875 12.90625 L 39.65625 12.90625 C 37.882813 6.320313 35.667969 0 31.3125 0 C 29.824219 0 28.71875 0.578125 27.75 1.09375 C 26.847656 1.574219 26.0625 2 25 2 C 23.9375 2 23.152344 1.574219 22.25 1.09375 C 21.28125 0.578125 20.175781 0 18.6875 0 Z M 11.75 15.21875 C 14.242188 17.109375 19.773438 18 25 18 C 30.199219 18 35.667969 17.125 38.21875 15.28125 C 38.339844 15.757813 38.476563 16.226563 38.59375 16.6875 L 38.875 17.75 C 38.457031 18.972656 33.265625 21 25 21 C 16.742188 21 11.582031 18.972656 11.15625 17.75 L 11.1875 17.625 C 11.371094 16.875 11.535156 16.066406 11.75 15.21875 Z M 9.53125 28.5 C 10.933594 28.8125 12.421875 29.066406 14 29.28125 L 14 29.59375 C 14 32.117188 15.726563 34.878906 18.9375 35 C 19.046875 35.007813 19.171875 35 19.28125 35 C 20.492188 35 21.613281 34.664063 22.4375 34.03125 C 23.152344 33.480469 24 32.421875 24 30.59375 L 24 30 C 24.335938 30.003906 24.664063 30 25 30 C 25.332031 30 25.667969 30.003906 26 30 L 26 30.59375 C 26 33.640625 28.367188 35 30.71875 35 C 30.828125 35 30.933594 35.007813 31.03125 35 C 34.253906 34.878906 36 32.117188 36 29.59375 L 36 29.28125 C 37.589844 29.066406 39.089844 28.8125 40.5 28.5 C 40.554688 28.683594 40.59375 28.882813 40.59375 29.1875 C 40.59375 29.722656 40.460938 30.339844 40.25 30.90625 C 39.816406 32.078125 39.023438 33.128906 38.1875 33.21875 L 37.59375 33.28125 L 37.375 33.8125 C 34.53125 40.871094 30.859375 48.105469 25 48 C 18.867188 47.90625 15.007813 39.933594 12.625 33.9375 L 12.40625 33.375 L 11.8125 33.3125 C 11.078125 33.230469 10.21875 32.125 9.75 30.90625 C 9.542969 30.367188 9.40625 29.816406 9.40625 29.3125 C 9.40625 28.949219 9.460938 28.683594 9.53125 28.5 Z"></path></svg>
