<?xml version="1.0" encoding="utf-8"?>
<svg xmlns="http://www.w3.org/2000/svg" viewBox="0 0 50 50"><path d="M 42 3 C 38.800781 3 37.601563 5.300781 36.5 7.398438 C 36 8.199219 35.601563 9 35 9.800781 C 35.5 10.199219 36 10.699219 36.402344 11.300781 C 37.199219 10.402344 37.699219 9.398438 38.199219 8.398438 C 39.300781 6.199219 40.101563 5 42 5 C 43.5 5 44.601563 5.5 45.300781 6.5 C 46.5 8.300781 46.300781 11.597656 44.800781 15.199219 C 43.800781 17.597656 42.601563 19.699219 41.402344 21.597656 C 39.402344 25 37.398438 28.199219 37 32.800781 C 36.644531 36.542969 38.503906 39.585938 40.140625 41.503906 L 36 42 L 39.800781 43.902344 L 36.902344 48 L 41.402344 45.5 L 43.300781 48 L 43.300781 44.800781 L 48 46.402344 L 44.800781 43.300781 L 47.402344 41.402344 L 44.199219 41.402344 L 44.199219 35 L 41.617188 40.164063 C 40.242188 38.527344 38.710938 35.996094 39 33 C 39.398438 28.898438 41.097656 26.097656 43.097656 22.699219 C 44.300781 20.699219 45.597656 18.601563 46.597656 16 C 48.398438 11.699219 48.5 7.699219 46.902344 5.398438 C 46.199219 4.300781 44.800781 3 42 3 Z M 30.097656 8 C 30.300781 12.199219 33.699219 15.601563 37.902344 15.800781 C 37.902344 14.101563 37.300781 12.5 36.300781 11.199219 C 35.902344 11.800781 35.300781 12.402344 34.5 12.902344 C 34 13.199219 33.398438 13 33.097656 12.597656 C 32.800781 12.097656 33 11.5 33.402344 11.199219 C 34 10.800781 34.5 10.402344 34.902344 9.800781 C 33.601563 8.699219 31.898438 8.101563 30.097656 8 Z M 28.300781 9.199219 L 26.199219 11.300781 L 26.199219 11.402344 C 26 16 30 20 34.597656 19.800781 L 34.699219 19.800781 L 36.800781 17.699219 C 32.402344 16.898438 29.101563 13.5 28.300781 9.199219 Z M 18.914063 9.886719 C 18.304688 9.886719 17.699219 9.925781 17.097656 10 C 9.300781 11 3 17.199219 2.101563 24.902344 C 1.5 30.199219 3.300781 35.300781 7 39 C 10.199219 42.199219 14.5 44 19 44 C 19.699219 44 20.398438 44 21.097656 43.902344 C 28.800781 43 35.101563 36.699219 35.902344 28.902344 C 36.199219 26.402344 35.898438 24 35.097656 21.699219 C 34.898438 21.800781 34.699219 21.800781 34.5 21.800781 C 29 22 24 17 24.199219 11.402344 C 24.199219 11.199219 24.199219 11 24.300781 10.800781 C 22.574219 10.199219 20.738281 9.882813 18.914063 9.886719 Z"></path></svg>
