<svg width="16" height="16" viewBox="0 0 16 16" fill="none" xmlns="http://www.w3.org/2000/svg">
<path fill-rule="evenodd" clip-rule="evenodd" d="M4.79999 4.79999V5.59998H11.2V4.79999C11.2 3.03267 9.7673 1.59999 7.99999 1.59999C6.23268 1.59999 4.79999 3.03267 4.79999 4.79999ZM3.19999 4.79999V5.87603C2.71873 6.18582 2.39999 6.72627 2.39999 7.34116V10.4C2.39999 13.4928 4.9072 16 7.99999 16C11.0928 16 13.6 13.4928 13.6 10.4V7.34116C13.6 6.72627 13.2813 6.18582 12.8 5.87603V4.79998C12.8 2.14902 10.651 -1.52588e-05 7.99999 -1.52588e-05C5.34903 -1.52588e-05 3.19999 2.14902 3.19999 4.79999ZM3.99999 7.34116C3.99999 7.26319 4.0632 7.19999 4.14117 7.19999H4.79999H11.2H11.8588C11.9368 7.19999 12 7.26319 12 7.34116V10.4C12 12.6091 10.2091 14.4 7.99999 14.4C5.79085 14.4 3.99999 12.6091 3.99999 10.4L3.99999 7.34116ZM8.13202 8C8.35294 8 8.53203 8.17909 8.53203 8.4V10.2L9.97202 11.28C10.1488 11.4125 10.1846 11.6633 10.052 11.84C9.91948 12.0167 9.66876 12.0525 9.49203 11.92L7.89202 10.72C7.7913 10.6445 7.73203 10.5259 7.73203 10.4V8.4C7.73203 8.17909 7.91111 8 8.13202 8Z" fill="#202D38"/>
</svg>
