<?xml version="1.0" encoding="utf-8"?>
<svg xmlns="http://www.w3.org/2000/svg" viewBox="0 0 480.06 480.06"><path style="fill: #f05757" d="M 124.0293 0 C 106.3793 0 92.029297 14.35 92.029297 32 L 92.029297 47.039062 L 73.689453 47.039062 C 69.269453 47.039062 65.689453 50.619062 65.689453 55.039062 C 65.689453 59.449062 69.269453 63.039062 73.689453 63.039062 L 406.36914 63.039062 C 410.78914 63.039063 414.36914 59.449063 414.36914 55.039062 C 414.36914 50.619062 410.78914 47.039062 406.36914 47.039062 L 388.0293 47.039062 L 388.0293 32 C 388.0293 14.35 373.6793 9.9573128e-17 356.0293 0 L 124.0293 0 z M 71.314453 79.039062 C 69.045453 79.039062 66.882234 80.004406 65.365234 81.691406 L 35.330078 115.08984 C 33.460078 117.16984 32.809141 120.07977 33.619141 122.75977 C 42.289141 151.35977 71.770781 171.72906 105.30078 172.28906 C 130.54078 172.70906 153.94008 161.96914 168.33008 144.11914 C 183.46008 165.39914 210.6593 179 240.0293 179 C 269.3993 179 296.60047 165.39914 311.73047 144.11914 C 326.12047 161.96914 349.54977 172.69906 374.75977 172.28906 C 408.28977 171.72906 437.76945 151.35977 446.43945 122.75977 C 447.24945 120.07977 446.59952 117.16984 444.72852 115.08984 L 414.69336 81.691406 C 413.17636 80.003406 411.01314 79.039062 408.74414 79.039062 L 71.314453 79.039062 z M 167.4043 169.65625 C 165.7083 169.595 163.99144 170.07416 162.52344 171.09766 C 130.21444 193.61566 85.884969 193.73767 53.792969 173.13867 C 49.531969 170.40367 43.831969 172.36456 42.042969 177.10156 C 8.9489687 264.70156 61.994078 383.66516 113.08008 461.91016 C 120.50008 473.28016 133.0318 480.06055 146.5918 480.06055 L 333.4707 480.06055 C 347.0307 480.06055 359.56047 473.28016 366.98047 461.91016 C 418.09547 383.62016 471.10553 264.67661 438.01953 177.09961 C 436.22853 172.36161 430.52763 170.40563 426.26562 173.14062 C 394.25862 193.67962 349.94925 193.68666 317.53125 171.09766 C 314.59225 169.04966 310.66163 169.18998 307.89062 171.45898 C 269.69563 202.73898 210.63116 202.92717 172.16016 171.45117 C 170.77516 170.31767 169.1003 169.7175 167.4043 169.65625 z M 199.02734 219.41992 C 203.18259 219.41992 207.3383 220.48614 211.0293 222.61914 C 238.5203 238.50814 237.5593 237.7437 240.0293 239.9707 C 242.5043 237.7387 241.5053 238.52714 269.0293 222.61914 C 276.4063 218.35514 285.6493 218.35014 293.0293 222.61914 L 318.0293 237.06055 C 325.4293 241.33055 330.0293 249.29984 330.0293 257.83984 L 330.0293 286.71094 C 330.0293 295.26094 325.4283 303.21823 318.0293 307.49023 C 290.1463 323.58723 291.61161 322.96323 288.34961 323.99023 C 289.25561 327.67623 289.0293 326.78653 289.0293 358.51953 C 289.0293 367.05953 284.4293 375.03078 277.0293 379.30078 L 252.0293 393.73047 C 244.6293 398.01047 235.4293 398.01047 228.0293 393.73047 L 203.0293 379.30078 C 195.6293 375.03078 191.0293 367.05953 191.0293 358.51953 C 191.0293 327.62553 190.79394 327.72123 191.71094 323.99023 C 188.18094 322.87923 188.4633 322.75123 162.0293 307.49023 C 154.6303 303.21823 150.0293 295.26094 150.0293 286.71094 L 150.0293 257.83984 C 150.0293 249.29984 154.6293 241.33055 162.0293 237.06055 L 187.0293 222.61914 C 190.7173 220.48614 194.87209 219.41992 199.02734 219.41992 z M 199.0293 235.41406 C 197.6468 235.41406 196.2643 235.77047 195.0293 236.48047 L 170.0293 250.91016 C 167.5593 252.34016 166.0293 254.98984 166.0293 257.83984 L 166.0293 286.71094 C 166.0293 289.56094 167.5593 292.21062 170.0293 293.64062 L 195.0293 308.07031 C 197.4993 309.50031 200.5593 309.50031 203.0293 308.07031 L 228.0293 293.64062 C 230.4993 292.21063 232.0293 289.56094 232.0293 286.71094 L 232.0293 257.83984 C 232.0293 254.98984 230.4993 252.34016 228.0293 250.91016 L 203.0293 236.48047 C 201.7943 235.77047 200.4118 235.41406 199.0293 235.41406 z M 281.0293 235.41406 C 279.6468 235.41406 278.2643 235.77047 277.0293 236.48047 L 252.0293 250.91016 C 249.5593 252.34016 248.0293 254.98984 248.0293 257.83984 L 248.0293 286.71094 C 248.0293 289.56094 249.5593 292.21062 252.0293 293.64062 L 277.0293 308.07031 C 279.4993 309.50031 282.5593 309.50031 285.0293 308.07031 L 310.0293 293.64062 C 312.4993 292.21063 314.0293 289.56094 314.0293 286.71094 L 314.0293 257.83984 C 314.0293 254.98984 312.4993 252.34016 310.0293 250.91016 L 285.0293 236.48047 C 283.7943 235.77047 282.4118 235.41406 281.0293 235.41406 z M 240.0293 307.2168 C 238.6468 307.2168 237.2643 307.57406 236.0293 308.28906 L 211.0293 322.7207 C 208.5593 324.1507 207.0293 326.80039 207.0293 329.65039 L 207.0293 358.51953 C 207.0293 361.35953 208.5593 364.01945 211.0293 365.43945 L 236.0293 379.88086 C 238.4993 381.30086 241.5593 381.30086 244.0293 379.88086 L 269.0293 365.43945 C 271.4993 364.01945 273.0293 361.35953 273.0293 358.51953 L 273.0293 329.65039 C 273.0293 326.80039 271.4993 324.1507 269.0293 322.7207 L 244.0293 308.28906 C 242.7943 307.57406 241.4118 307.2168 240.0293 307.2168 z"></path></svg>
