<?xml version="1.0" encoding="utf-8"?>
<svg xmlns="http://www.w3.org/2000/svg" viewBox="0 0 24 24">
    <circle cx="4.5" cy="12.5" r="2.5"></circle>
    <path d="M5.75,7.75h-2.5c-0.552,0-1-0.448-1-1v-2.5c0-0.552,0.448-1,1-1h2.5c0.552,0,1,0.448,1,1v2.5 C6.75,7.302,6.302,7.75,5.75,7.75z"></path>
    <path d="M13.5,7h-3C9.672,7,9,6.329,9,5.5S9.672,4,10.5,4h3C14.328,4,15,4.671,15,5.5S14.328,7,13.5,7z" opacity=".35"></path>
    <path d="M20.5,7h-2C17.672,7,17,6.329,17,5.5S17.672,4,18.5,4h2C21.328,4,22,4.671,22,5.5S21.328,7,20.5,7z" opacity=".35"></path>
    <path d="M12.5,14h-2C9.672,14,9,13.329,9,12.5S9.672,11,10.5,11h2c0.828,0,1.5,0.671,1.5,1.5 S13.328,14,12.5,14z" opacity=".35"></path>
    <path d="M20.5,14h-3c-0.828,0-1.5-0.671-1.5-1.5s0.672-1.5,1.5-1.5h3c0.828,0,1.5,0.671,1.5,1.5 S21.328,14,20.5,14z" opacity=".35"></path>
    <path d="M13.5,21h-3C9.672,21,9,20.329,9,19.5S9.672,18,10.5,18h3c0.828,0,1.5,0.671,1.5,1.5 S14.328,21,13.5,21z" opacity=".35"></path>
    <path d="M20.5,21h-2c-0.828,0-1.5-0.671-1.5-1.5s0.672-1.5,1.5-1.5h2c0.828,0,1.5,0.671,1.5,1.5 S21.328,21,20.5,21z" opacity=".35"></path>
    <path d="M3.573,17.552l-1.616,2.78C1.526,21.072,2.06,22,2.916,22h3.168c0.847,0,1.382-0.911,0.969-1.651l-1.552-2.78 C5.082,16.818,4.005,16.808,3.573,17.552z"></path>
</svg>