<?xml version="1.0" encoding="utf-8"?>
<svg xmlns="http://www.w3.org/2000/svg" viewBox="0 0 50 50"><path style="fill: #fff" d="M47 29h-1v-1.867c0-1.496-.807-2.797-2-3.522v12.778c1.193-.726 2-2.026 2-3.522V31h1c.552 0 1-.448 1-1S47.552 29 47 29zM35.179 14H14.821C11.06 14 8 17.06 8 20.821v19.358C8 43.94 11.06 47 14.821 47h20.358C38.94 47 42 43.94 42 40.179V20.821C42 17.06 38.94 14 35.179 14zM15.172 24.586c-.391-.391-.391-1.023 0-1.414s1.023-.391 1.414 0L18 24.586l1.414-1.414c.391-.391 1.023-.391 1.414 0s.391 1.023 0 1.414L19.414 26l1.414 1.414c.391.391.391 1.023 0 1.414-.195.195-.451.293-.707.293s-.512-.098-.707-.293L18 27.414l-1.414 1.414c-.195.195-.451.293-.707.293s-.512-.098-.707-.293c-.391-.391-.391-1.023 0-1.414L16.586 26 15.172 24.586zM34.833 39.554C34.64 39.843 34.322 40 33.999 40c-.19 0-.383-.054-.553-.167l-2.45-1.631-2.45 1.631c-.336.224-.773.223-1.109 0l-2.445-1.63-2.444 1.63c-.336.224-.773.224-1.11 0l-2.442-1.63-2.44 1.629c-.459.307-1.08.184-1.387-.276-.307-.459-.183-1.08.276-1.387l2.995-2c.336-.224.773-.224 1.11 0l2.443 1.63 2.444-1.63c.336-.224.773-.224 1.109 0l2.445 1.63 2.45-1.631c.336-.224.772-.224 1.108 0l3.004 2C35.014 38.474 35.139 39.094 34.833 39.554zM32 29c-1.657 0-3-1.343-3-3s1.343-3 3-3 3 1.343 3 3S33.657 29 32 29zM26.367 10H26V7.229c0-.524.271-.995.724-1.258.454-.263.997-.265 1.452-.005l.878.502C29.023 6.641 29 6.818 29 7c0 1.654 1.346 3 3 3s3-1.346 3-3-1.346-3-3-3c-.746 0-1.421.284-1.946.736L29.168 4.23c-1.082-.619-2.371-.614-3.448.012C24.643 4.867 24 5.984 24 7.229V10h-.367c-1.576 0-2.967.794-3.804 2h10.342C29.334 10.794 27.943 10 26.367 10zM4 27.133V29H3c-.552 0-1 .448-1 1s.448 1 1 1h1v1.867c0 1.496.807 2.797 2 3.522V23.611C4.807 24.337 4 25.637 4 27.133z"></path></svg>
