<?xml version="1.0" encoding="utf-8"?>
<svg xmlns="http://www.w3.org/2000/svg" viewBox="0 0 50 50">
    <path style="fill: #1a8c27" d="M 25 0.09765625 C 23.019 0.09765625 21.229953 1.0387969 18.751953 2.3417969 C 15.559953 4.0207969 11.187156 6.3173594 3.7851562 7.9433594 L 3 8.1152344 L 3 8.9199219 C 3 39.384922 24.364078 49.600219 24.580078 49.699219 L 25.021484 49.902344 L 25.453125 49.683594 C 25.669125 49.573594 47 38.369922 47 8.9199219 L 47 8.1152344 L 46.214844 7.9433594 C 38.812844 6.3173594 34.440047 4.0207969 31.248047 2.3417969 C 28.770047 1.0397969 26.981 0.09765625 25 0.09765625 z M 16 18 L 20 18 C 20.552 18 21 18.448 21 19 C 21 19.552 20.552 20 20 20 L 19 20 L 19 28 C 19 28.552 18.552 29 18 29 C 17.448 29 17 28.552 17 28 L 17 20 L 16 20 C 15.448 20 15 19.552 15 19 C 15 18.448 15.448 18 16 18 z M 24 18 C 24.552 18 25 18.448 25 19 L 25 27 L 27 27 C 27.552 27 28 27.448 28 28 C 28 28.552 27.552 29 27 29 L 23 29 L 23 19 C 23 18.448 23.448 18 24 18 z M 32 18 C 33.744 18 34.651062 19.003703 34.914062 19.595703 C 35.138062 20.100703 34.909297 20.691063 34.404297 20.914062 C 33.897297 21.138063 33.309938 20.909297 33.085938 20.404297 C 33.077938 20.396297 32.832 20 32 20 C 31.632 20.007 31 20.122781 31 20.800781 C 31 21.622781 31.626437 22.105172 32.648438 22.826172 C 33.696437 23.565172 35 24.483219 35 26.199219 C 35 28.253219 33.206 29 32 29 C 30.423 29 29.351375 27.783531 29.234375 27.644531 C 28.878375 27.222531 28.932469 26.590375 29.355469 26.234375 C 29.775469 25.879375 30.402766 25.931609 30.759766 26.349609 C 30.917766 26.531609 31.448 27 32 27 C 32.368 26.993 33 26.877219 33 26.199219 C 33 25.553219 32.428094 25.118937 31.496094 24.460938 C 30.384094 23.676937 29 22.701781 29 20.800781 C 29 18.746781 30.794 18 32 18 z"></path>
</svg>