<?xml version="1.0" encoding="utf-8"?>
<svg xmlns="http://www.w3.org/2000/svg" viewBox="0 0 479.785 479.785"><path d="M 239.88672 0 C 235.27172 0 230.65688 0.5653125 226.17188 1.6953125 L 71.472656 40.775391 C 53.662656 45.275391 41.192578 61.184375 41.142578 79.484375 L 41.142578 175.49414 C 41.142578 178.59414 42.932422 181.41438 45.732422 182.73438 L 62.011719 190.39453 L 42.011719 224.08594 C 41.271719 225.32594 40.882578 226.75508 40.892578 228.20508 C 41.032578 256.70508 45.781953 284.73562 55.001953 311.51562 C 56.351953 315.46562 60.512734 317.70406 64.552734 316.66406 L 97.533203 308.18555 C 102.1622 306.99555 104.69881 302.04812 103.00781 297.57812 C 94.761812 275.78613 90.316953 252.23373 90.376953 227.80273 L 90.376953 118.92188 C 90.413953 104.40887 100.32356 91.791797 114.47656 88.216797 L 229.21484 59.234375 C 236.20084 57.468375 243.5825 57.468422 250.5625 59.232422 L 275.73047 65.589844 C 279.28647 66.487844 282.99738 64.853047 284.73438 61.623047 L 304.53125 24.824219 C 306.97225 20.257219 304.51141 14.569391 299.44141 13.275391 L 253.60156 1.6953125 C 249.11656 0.5653125 244.50172 0 239.88672 0 z M 381.92188 34.447266 C 379.67 34.534922 377.51297 35.577266 376.04297 37.384766 L 347.73047 72.025391 C 344.02347 76.560391 346.28584 83.411703 351.96484 84.845703 L 365.31641 88.216797 C 379.46641 91.790797 389.37416 104.40934 389.41016 118.90234 L 389.41016 227.80273 C 389.63916 317.67973 328.95675 395.75162 241.84375 417.64062 C 240.60975 417.95063 239.27136 417.97362 237.94336 417.64062 C 196.10336 407.12763 160.36697 383.65086 134.54297 352.13086 C 130.22097 346.85586 121.68781 349.13456 120.50781 355.85156 L 112.48242 401.53516 C 112.04242 404.05516 112.83305 406.64438 114.62305 408.48438 C 148.25305 443.11437 190.80359 467.65438 237.68359 479.48438 C 238.99759 479.85438 240.45812 479.89939 241.95312 479.52539 C 275.65312 471.04539 306.38819 455.67361 334.49219 435.47461 C 335.95219 434.42561 337.34211 432.71562 337.91211 429.76562 C 338.04211 429.06563 341.32203 411.40492 344.33203 395.29492 C 362.52203 390.28492 382.26297 384.89578 383.04297 384.67578 C 385.84297 383.88578 387.46234 382.48539 388.40234 381.02539 C 421.90234 335.41539 438.89258 282.82508 438.89258 224.70508 C 438.89258 221.43508 436.90328 218.49539 433.86328 217.27539 L 417.76367 210.83594 L 437.64258 174.68555 C 438.29258 173.49555 438.64258 172.17422 438.64258 170.82422 L 438.64258 79.464844 C 438.59258 61.184844 426.12227 45.275391 408.32227 40.775391 C 401.32227 39.005391 393.12359 36.935547 384.18359 34.685547 C 383.43359 34.495547 382.6725 34.418047 381.92188 34.447266 z M 239.89258 73.908203 C 237.61995 73.908578 235.34677 74.187594 233.13477 74.746094 L 118.39453 103.72852 C 111.33653 105.51152 106.39495 111.76741 106.37695 118.94141 L 106.37695 227.82031 C 106.31295 252.97531 111.44991 277.11756 120.87891 299.10156 C 121.56591 300.70356 123.33348 301.55119 125.02148 301.11719 C 127.52448 300.47319 129.85716 302.63078 129.41016 305.17578 L 128.13477 312.43359 C 127.99377 313.23459 128.12853 314.06239 128.51953 314.77539 C 151.57953 356.72139 191.12953 388.79414 239.89453 401.61914 C 318.82253 380.86014 373.61816 309.68231 373.41016 227.82031 L 373.41016 118.91992 C 373.39216 111.76592 368.45244 105.51052 361.39844 103.72852 L 333.52539 96.6875 C 330.51539 95.9275 327.33509 96.976859 325.37109 99.380859 L 297.20508 133.84375 C 294.78508 136.80375 294.79438 141.06391 297.23438 144.00391 L 311.74414 161.54297 C 314.41614 164.77297 314.14028 169.51797 311.11328 172.41797 L 261.36719 220.07422 C 258.36319 222.95122 253.50987 219.90227 254.79688 215.94727 L 268.00391 175.38281 C 269.27391 171.48281 267.38453 167.25375 263.64453 165.59375 L 243.40625 156.59766 C 239.15225 154.70666 237.40633 149.59609 239.61133 145.49609 L 269.10352 90.677734 C 271.57152 86.090734 269.06758 80.406859 264.01758 79.130859 L 246.64453 74.744141 C 244.43603 74.186141 242.1652 73.907828 239.89258 73.908203 z"></path></svg>
