<?xml version="1.0" encoding="utf-8"?>
<svg xmlns="http://www.w3.org/2000/svg" viewBox="0 0 30 30">
    <path d="M 14.984375 1.9863281 A 1.0001 1.0001 0 0 0 14 3 L 14 4 L 2 4 A 1.0001 1.0001 0 1 0 2 6 L 2 21 C 2 22.105 2.895 23 4 23 L 11.787109 23 L 10.148438 26.042969 A 1.5 1.5 0 0 0 9 27.5 A 1.5 1.5 0 0 0 10.5 29 A 1.5 1.5 0 0 0 12 27.5 A 1.5 1.5 0 0 0 11.910156 26.992188 L 14.058594 23 L 15.941406 23 L 18.089844 26.992188 A 1.5 1.5 0 0 0 18 27.5 A 1.5 1.5 0 0 0 19.5 29 A 1.5 1.5 0 0 0 21 27.5 A 1.5 1.5 0 0 0 19.851562 26.042969 L 18.212891 23 L 26 23 C 27.105 23 28 22.105 28 21 L 28 6 A 1.0001 1.0001 0 1 0 28 4 L 16 4 L 16 3 A 1.0001 1.0001 0 0 0 14.984375 1.9863281 z M 23 9 C 23.25575 9 23.511531 9.0974687 23.707031 9.2929688 C 24.098031 9.6839688 24.098031 10.316031 23.707031 10.707031 L 17.707031 16.707031 C 17.316031 17.098031 16.683969 17.098031 16.292969 16.707031 L 14 14.414062 L 10.707031 17.707031 C 10.512031 17.902031 10.256 18 10 18 C 9.744 18 9.4879688 17.902031 9.2929688 17.707031 L 7.2929688 15.707031 C 6.9019687 15.316031 6.9019688 14.683969 7.2929688 14.292969 C 7.6839688 13.901969 8.3160313 13.901969 8.7070312 14.292969 L 10 15.585938 L 13.292969 12.292969 C 13.683969 11.901969 14.316031 11.901969 14.707031 12.292969 L 17 14.585938 L 22.292969 9.2929688 C 22.488469 9.0974688 22.74425 9 23 9 z"></path>
</svg>