<?xml version="1.0" encoding="utf-8"?>
<svg xmlns="http://www.w3.org/2000/svg" viewBox="0 0 50 50"><path style="fill: #fff" d="M 45.230469 8.8125 L 41.308594 4.890625 L 40.757813 5.03125 C 40.683594 5.050781 33.082031 6.871094 25.53125 2.152344 L 25 1.820313 L 24.46875 2.152344 C 16.949219 6.851563 9.316406 5.050781 9.242188 5.027344 L 8.691406 4.894531 L 4.769531 8.8125 L 5.113281 9.464844 C 7.039063 13.121094 7.011719 17.464844 7.003906 19.550781 L 7 20 C 7 20.808594 6.808594 22.210938 6.601563 23.695313 C 6.320313 25.746094 6 28.074219 6 30 C 6 36.570313 11.875 44.996094 24.773438 47.976563 L 25 48.027344 L 25.226563 47.972656 C 38.125 44.996094 44 36.570313 44 30 C 44 28.074219 43.679688 25.746094 43.398438 23.695313 C 43.191406 22.210938 43 20.808594 43 20 L 42.996094 19.554688 C 42.984375 17.464844 42.960938 13.121094 44.886719 9.464844 Z M 34 29 C 34.550781 29 35 29.449219 35 30 C 35 30.550781 34.550781 31 34 31 C 33.503906 31 33.109375 30.632813 33.03125 30.160156 L 27.640625 29.574219 L 25.59375 34.214844 C 25.835938 34.398438 26 34.675781 26 35 C 26 35.550781 25.550781 36 25 36 C 24.449219 36 24 35.550781 24 35 C 24 34.675781 24.164063 34.398438 24.40625 34.214844 L 22.359375 29.574219 L 16.96875 30.160156 C 16.890625 30.632813 16.496094 31 16 31 C 15.449219 31 15 30.550781 15 30 C 15 29.449219 15.449219 29 16 29 C 16.238281 29 16.449219 29.09375 16.621094 29.234375 L 19.71875 25 L 16.621094 20.765625 C 16.449219 20.90625 16.238281 21 16 21 C 15.449219 21 15 20.550781 15 20 C 15 19.449219 15.449219 19 16 19 C 16.496094 19 16.890625 19.367188 16.96875 19.839844 L 22.359375 20.425781 L 24.40625 15.785156 C 24.164063 15.601563 24 15.324219 24 15 C 24 14.449219 24.449219 14 25 14 C 25.550781 14 26 14.449219 26 15 C 26 15.324219 25.835938 15.601563 25.59375 15.785156 L 27.640625 20.425781 L 33.03125 19.839844 C 33.109375 19.367188 33.503906 19 34 19 C 34.550781 19 35 19.449219 35 20 C 35 20.550781 34.550781 21 34 21 C 33.761719 21 33.550781 20.90625 33.378906 20.765625 L 30.28125 25 L 33.378906 29.234375 C 33.550781 29.09375 33.761719 29 34 29 Z"></path></svg>
