<?xml version="1.0" encoding="utf-8"?>
<svg xmlns="http://www.w3.org/2000/svg" viewBox="0 0 64 64">
    <path style="fill: #fff" d="M 27.291016 3 L 25.345703 8.9433594 C 22.354079 9.8060054 19.603376 11.233414 17.214844 13.105469 L 18.644531 10 L 16.292969 8.7226562 C 15.513969 8.2986563 14.550828 8.4374531 13.923828 9.0644531 L 8.1640625 14.824219 L 10.990234 20.402344 C 9.534061 23.033578 8.5598301 25.966805 8.1816406 29.083984 L 7 25.886719 L 4.4335938 26.646484 C 3.5835938 26.897484 3 27.678453 3 28.564453 L 3 36.708984 L 8.9433594 38.654297 C 9.8060054 41.645921 11.233414 44.396624 13.105469 46.785156 L 10 45.355469 L 8.7226562 47.707031 C 8.2986563 48.486031 8.4374531 49.449172 9.0644531 50.076172 L 14.824219 55.835938 L 20.402344 53.009766 C 23.033578 54.465939 25.966805 55.44017 29.083984 55.818359 L 25.886719 57 L 26.646484 59.566406 C 26.897484 60.416406 27.678453 61 28.564453 61 L 36.708984 61 L 38.654297 55.056641 C 41.645921 54.193995 44.396624 52.766586 46.785156 50.894531 L 45.355469 54 L 47.707031 55.277344 C 48.486031 55.701344 49.449172 55.562547 50.076172 54.935547 L 55.835938 49.175781 L 53.009766 43.597656 C 54.465939 40.966422 55.44017 38.033195 55.818359 34.916016 L 57 38.113281 L 59.566406 37.353516 C 60.416406 37.102516 61 36.321547 61 35.435547 L 61 27.291016 L 55.056641 25.345703 C 54.193995 22.354079 52.766586 19.603376 50.894531 17.214844 L 54 18.644531 L 55.277344 16.292969 C 55.701344 15.513969 55.562547 14.550828 54.935547 13.923828 L 49.175781 8.1640625 L 43.597656 10.990234 C 40.966422 9.534061 38.033195 8.5598301 34.916016 8.1816406 L 38.113281 7 L 37.353516 4.4335938 C 37.102516 3.5835938 36.321547 3 35.435547 3 L 27.291016 3 z M 19.699219 24.039062 L 23.330078 24.039062 L 28.039062 39.960938 L 24.949219 39.960938 L 24.109375 36.990234 L 18.900391 36.990234 L 18.080078 39.960938 L 15 39.960938 L 19.699219 24.039062 z M 30.5 24.039062 L 36.439453 24.039062 C 39.369453 24.039062 41.279297 25.930938 41.279297 28.960938 C 41.279297 32.130938 39.239219 33.910156 36.199219 33.910156 L 33.359375 33.910156 L 33.359375 39.960938 L 30.5 39.960938 L 30.5 24.039062 z M 44.140625 24.039062 L 47 24.039062 L 47 39.960938 L 44.140625 39.960938 L 44.140625 24.039062 z M 33.359375 26.859375 L 33.359375 31.070312 L 36.380859 31.070312 C 36.549609 31.070312 36.708262 31.05998 36.857422 31.039062 C 37.006582 31.018145 37.14625 30.987109 37.275391 30.945312 C 37.404531 30.903516 37.522168 30.849746 37.630859 30.787109 C 37.739551 30.724473 37.837969 30.651797 37.925781 30.568359 C 38.277031 30.234609 38.460938 29.735312 38.460938 29.070312 C 38.460938 28.885313 38.448379 28.712383 38.425781 28.550781 C 38.403184 28.38918 38.368984 28.237891 38.324219 28.099609 C 38.279453 27.961328 38.224707 27.835742 38.158203 27.720703 C 38.091699 27.605664 38.013594 27.502031 37.925781 27.410156 C 37.837969 27.318281 37.739551 27.238711 37.630859 27.169922 C 37.522168 27.101133 37.404531 27.043828 37.275391 26.998047 C 37.14625 26.952266 37.006582 26.917383 36.857422 26.894531 C 36.708262 26.87168 36.549609 26.859375 36.380859 26.859375 L 33.359375 26.859375 z M 21.470703 27.720703 L 19.660156 34.169922 L 23.330078 34.169922 L 21.470703 27.720703 z"></path>
</svg>