<?xml version="1.0" encoding="utf-8"?>
<svg xmlns="http://www.w3.org/2000/svg" viewBox="0 0 50 50">
    <path style="fill: #fff" d="M 25.636719 4 C 23.354663 4 21.614316 4.7928509 20.714844 6.2070312 C 19.904723 7.4807311 19.892104 9.0825377 20.267578 10.726562 C 20.076255 11.06131 19.957405 11.453468 20.011719 11.945312 C 20.074859 12.514836 20.215024 12.967911 20.480469 13.335938 C 20.578209 13.471455 20.753365 13.478888 20.884766 13.578125 C 21.019831 14.110096 21.161244 14.660176 21.425781 15.017578 C 21.611532 15.268535 21.800662 15.479445 21.976562 15.650391 C 21.984163 15.657791 21.9926 15.660779 22 15.667969 L 22 16.660156 C 21.9328 16.811168 21.822992 16.951396 21.474609 17.148438 C 21.089979 17.36598 20.514864 17.588357 19.890625 17.892578 C 19.266386 18.1968 18.577834 18.594686 18.015625 19.251953 C 17.453416 19.90922 17.063913 20.825237 17.001953 21.945312 A 1.0001 1.0001 0 0 0 18 23 L 32 23 A 1.0001 1.0001 0 0 0 32.998047 21.945312 C 32.936087 20.825239 32.546551 19.909284 31.984375 19.251953 C 31.422199 18.594622 30.733635 18.196878 30.109375 17.892578 C 29.485115 17.588278 28.910089 17.364029 28.525391 17.146484 C 28.177008 16.949476 28.067147 16.810888 28 16.660156 L 28 15.65625 C 28.0097 15.64645 28.02117 15.640999 28.03125 15.630859 C 28.204238 15.456801 28.391071 15.244369 28.572266 14.994141 C 28.828242 14.640639 28.963567 14.108457 29.097656 13.59375 C 29.229448 13.49445 29.403997 13.487375 29.501953 13.351562 C 29.767766 12.983026 29.910125 12.530592 29.972656 11.960938 C 30.014736 11.579875 29.979556 11.223445 29.847656 10.892578 C 29.829946 10.848158 29.751986 10.824218 29.730469 10.779297 C 30.009576 9.6344202 30.100511 8.4134621 29.658203 7.2929688 C 29.236023 6.2234635 28.144477 5.4898263 26.78125 5.2246094 L 26.576172 4.6582031 A 1.0001 1.0001 0 0 0 25.636719 4 z M 24.976562 6.1113281 L 25.060547 6.3417969 A 1.0001 1.0001 0 0 0 26 7 C 27.193111 7 27.538713 7.3733439 27.796875 8.0273438 C 28.055037 8.6813434 28.026996 9.7460911 27.730469 10.705078 A 1.0001 1.0001 0 0 0 27.986328 11.712891 C 27.986722 11.731991 27.987575 11.713252 27.984375 11.742188 C 27.953395 12.024429 27.910077 12.080602 27.898438 12.105469 A 1.0001 1.0001 0 0 0 27.316406 13.011719 C 27.316406 13.133233 27.179986 13.508972 26.953125 13.822266 C 26.839694 13.978913 26.713199 14.12212 26.613281 14.222656 C 26.513361 14.323192 26.386323 14.399101 26.503906 14.332031 A 1.0001 1.0001 0 0 0 26 15.199219 L 26 16.933594 A 1.0001 1.0001 0 0 0 26.054688 17.257812 C 26.328761 18.058571 26.956356 18.559154 27.539062 18.888672 C 28.121771 19.21819 28.715557 19.437503 29.232422 19.689453 C 29.749287 19.941403 30.173864 20.212503 30.464844 20.552734 C 30.551504 20.654067 30.555734 20.878936 30.625 21 L 19.375 21 C 19.44425 20.878963 19.4485 20.654039 19.535156 20.552734 C 19.826103 20.212595 20.250692 19.94331 20.767578 19.691406 C 21.284464 19.439503 21.878162 19.218284 22.460938 18.888672 C 23.043713 18.559059 23.671328 18.058726 23.945312 17.257812 A 1.0001 1.0001 0 0 0 24 16.933594 L 24 15.199219 A 1.0001 1.0001 0 0 0 23.492188 14.330078 C 23.59273 14.386858 23.471378 14.314258 23.371094 14.216797 C 23.270808 14.119337 23.146203 13.980793 23.033203 13.828125 C 22.807204 13.522789 22.666016 13.160996 22.666016 12.996094 A 1.0001 1.0001 0 0 0 22.085938 12.089844 C 22.074068 12.064624 22.029357 12.008975 21.998047 11.726562 C 21.993758 11.687722 22.001954 11.700371 22.007812 11.6875 A 1.0001 1.0001 0 0 0 22.257812 10.708984 C 21.829707 9.2151014 21.927816 8.0273195 22.402344 7.28125 C 22.803508 6.6505262 23.646608 6.244575 24.976562 6.1113281 z M 8 13 A 1.0001 1.0001 0 0 0 7 14 L 7 24 A 1.0001 1.0001 0 1 0 9 24 L 9 15 L 17 15 A 1.0001 1.0001 0 1 0 17 13 L 8 13 z M 33 13 A 1.0001 1.0001 0 1 0 33 15 L 41 15 L 41 24 A 1.0001 1.0001 0 1 0 43 24 L 43 14 A 1.0001 1.0001 0 0 0 42 13 L 33 13 z M 8.6367188 27 C 6.3546632 27 4.6143155 27.792851 3.7148438 29.207031 C 2.904723 30.480731 2.8921036 32.082537 3.2675781 33.726562 C 3.0762554 34.06131 2.9574045 34.453468 3.0117188 34.945312 C 3.0748597 35.514837 3.2150242 35.967911 3.4804688 36.335938 C 3.5782128 36.471455 3.7533648 36.478888 3.8847656 36.578125 C 4.0198314 37.110096 4.161244 37.660176 4.4257812 38.017578 C 4.6115315 38.268535 4.8006609 38.479445 4.9765625 38.650391 C 4.9841725 38.657791 4.992604 38.660779 5 38.667969 L 5 39.660156 C 4.932804 39.811168 4.8229917 39.951396 4.4746094 40.148438 C 4.0899786 40.36598 3.5148639 40.588357 2.890625 40.892578 C 2.2663861 41.1968 1.5778345 41.594686 1.015625 42.251953 C 0.45341553 42.90922 0.063913485 43.825237 0.001953125 44.945312 A 1.0001 1.0001 0 0 0 1 46 L 15 46 A 1.0001 1.0001 0 0 0 15.998047 44.945312 C 15.936087 43.82524 15.546551 42.909284 14.984375 42.251953 C 14.422199 41.594622 13.733635 41.196878 13.109375 40.892578 C 12.485115 40.588278 11.910089 40.364029 11.525391 40.146484 C 11.177008 39.949476 11.067147 39.810888 11 39.660156 L 11 38.65625 C 11.0097 38.64645 11.02117 38.640999 11.03125 38.630859 C 11.204238 38.456801 11.391071 38.244369 11.572266 37.994141 C 11.828242 37.640639 11.963567 37.108457 12.097656 36.59375 C 12.229448 36.49445 12.403997 36.487375 12.501953 36.351562 C 12.767766 35.983025 12.910125 35.530593 12.972656 34.960938 C 13.014736 34.579875 12.979556 34.223445 12.847656 33.892578 C 12.829946 33.848158 12.751986 33.824218 12.730469 33.779297 C 13.009576 32.634421 13.100515 31.413462 12.658203 30.292969 C 12.236023 29.223464 11.144477 28.489826 9.78125 28.224609 L 9.5761719 27.658203 A 1.0001 1.0001 0 0 0 8.6367188 27 z M 25.636719 27 C 23.354663 27 21.614316 27.792851 20.714844 29.207031 C 19.904723 30.480731 19.892104 32.082537 20.267578 33.726562 C 20.076255 34.06131 19.957405 34.453468 20.011719 34.945312 C 20.074859 35.514837 20.215024 35.967911 20.480469 36.335938 C 20.578209 36.471455 20.753365 36.478888 20.884766 36.578125 C 21.019831 37.110096 21.161244 37.660176 21.425781 38.017578 C 21.611532 38.268535 21.800662 38.479445 21.976562 38.650391 C 21.984163 38.657791 21.9926 38.660779 22 38.667969 L 22 39.660156 C 21.9328 39.811168 21.822992 39.951396 21.474609 40.148438 C 21.089979 40.36598 20.514864 40.588357 19.890625 40.892578 C 19.266386 41.1968 18.577834 41.594686 18.015625 42.251953 C 17.453416 42.90922 17.063913 43.825237 17.001953 44.945312 A 1.0001 1.0001 0 0 0 18 46 L 32 46 A 1.0001 1.0001 0 0 0 32.998047 44.945312 C 32.936087 43.82524 32.546551 42.909284 31.984375 42.251953 C 31.422199 41.594622 30.733635 41.196878 30.109375 40.892578 C 29.485115 40.588278 28.910089 40.364029 28.525391 40.146484 C 28.177008 39.949476 28.067147 39.810888 28 39.660156 L 28 38.65625 C 28.0097 38.64645 28.02117 38.640999 28.03125 38.630859 C 28.204238 38.456801 28.391071 38.244369 28.572266 37.994141 C 28.828242 37.640639 28.963567 37.108457 29.097656 36.59375 C 29.229448 36.49445 29.403997 36.487375 29.501953 36.351562 C 29.767766 35.983025 29.910125 35.530593 29.972656 34.960938 C 30.014736 34.579875 29.979556 34.223445 29.847656 33.892578 C 29.829946 33.848158 29.751986 33.824218 29.730469 33.779297 C 30.009576 32.634421 30.100515 31.413462 29.658203 30.292969 C 29.236023 29.223464 28.144477 28.489826 26.78125 28.224609 L 26.576172 27.658203 A 1.0001 1.0001 0 0 0 25.636719 27 z M 42.636719 27 C 40.354663 27 38.614316 27.792851 37.714844 29.207031 C 36.904723 30.480731 36.892104 32.082537 37.267578 33.726562 C 37.076255 34.06131 36.957405 34.453468 37.011719 34.945312 C 37.074859 35.514837 37.215024 35.967911 37.480469 36.335938 C 37.578209 36.471455 37.753365 36.478888 37.884766 36.578125 C 38.019831 37.110096 38.161244 37.660176 38.425781 38.017578 C 38.611532 38.268535 38.800661 38.479445 38.976562 38.650391 C 38.984162 38.657791 38.9926 38.660779 39 38.667969 L 39 39.660156 C 38.9328 39.811168 38.822992 39.951396 38.474609 40.148438 C 38.089979 40.36598 37.514864 40.588357 36.890625 40.892578 C 36.266386 41.1968 35.577834 41.594686 35.015625 42.251953 C 34.453416 42.90922 34.063913 43.825237 34.001953 44.945312 A 1.0001 1.0001 0 0 0 35 46 L 49 46 A 1.0001 1.0001 0 0 0 49.998047 44.945312 C 49.936087 43.82524 49.546551 42.909284 48.984375 42.251953 C 48.422199 41.594622 47.733635 41.196878 47.109375 40.892578 C 46.485115 40.588278 45.910089 40.364029 45.525391 40.146484 C 45.177008 39.949476 45.067147 39.810888 45 39.660156 L 45 38.65625 C 45.0097 38.64645 45.02117 38.640999 45.03125 38.630859 C 45.204238 38.456801 45.391071 38.244369 45.572266 37.994141 C 45.828242 37.640639 45.963567 37.108457 46.097656 36.59375 C 46.229448 36.49445 46.403997 36.487375 46.501953 36.351562 C 46.767766 35.983025 46.910125 35.530593 46.972656 34.960938 C 47.014736 34.579875 46.979556 34.223445 46.847656 33.892578 C 46.829946 33.848158 46.751986 33.824218 46.730469 33.779297 C 47.009576 32.634421 47.100515 31.413462 46.658203 30.292969 C 46.236023 29.223464 45.144477 28.489826 43.78125 28.224609 L 43.576172 27.658203 A 1.0001 1.0001 0 0 0 42.636719 27 z M 7.9765625 29.111328 L 8.0605469 29.341797 A 1.0001 1.0001 0 0 0 9 30 C 10.193111 30 10.538713 30.373344 10.796875 31.027344 C 11.055037 31.681344 11.026996 32.746091 10.730469 33.705078 A 1.0001 1.0001 0 0 0 10.986328 34.712891 C 10.986722 34.731991 10.987575 34.713251 10.984375 34.742188 C 10.953395 35.024428 10.910077 35.080602 10.898438 35.105469 A 1.0001 1.0001 0 0 0 10.316406 36.011719 C 10.316406 36.133233 10.179986 36.508972 9.953125 36.822266 C 9.8396943 36.978913 9.7131993 37.12212 9.6132812 37.222656 C 9.5133632 37.323192 9.3863227 37.399101 9.5039062 37.332031 A 1.0001 1.0001 0 0 0 9 38.199219 L 9 39.933594 A 1.0001 1.0001 0 0 0 9.0546875 40.257812 C 9.3287615 41.058571 9.9563551 41.559154 10.539062 41.888672 C 11.121771 42.21819 11.715557 42.437503 12.232422 42.689453 C 12.749287 42.941403 13.173864 43.212503 13.464844 43.552734 C 13.551504 43.654067 13.555744 43.878936 13.625 44 L 2.375 44 C 2.4442539 43.878963 2.4485026 43.654039 2.5351562 43.552734 C 2.826103 43.212595 3.250692 42.94331 3.7675781 42.691406 C 4.2844642 42.439503 4.878162 42.218284 5.4609375 41.888672 C 6.043713 41.559059 6.6713266 41.058726 6.9453125 40.257812 A 1.0001 1.0001 0 0 0 7 39.933594 L 7 38.199219 A 1.0001 1.0001 0 0 0 6.4921875 37.330078 C 6.5927296 37.386859 6.4713796 37.314257 6.3710938 37.216797 C 6.2708079 37.119336 6.1462029 36.980793 6.0332031 36.828125 C 5.8072036 36.522789 5.6660156 36.160996 5.6660156 35.996094 A 1.0001 1.0001 0 0 0 5.0859375 35.089844 C 5.0740715 35.064624 5.0293579 35.008975 4.9980469 34.726562 C 4.9937577 34.687722 5.0019539 34.700371 5.0078125 34.6875 A 1.0001 1.0001 0 0 0 5.2578125 33.708984 C 4.8297074 32.215104 4.9278155 31.02732 5.4023438 30.28125 C 5.8035077 29.650526 6.6466082 29.244575 7.9765625 29.111328 z M 24.976562 29.111328 L 25.060547 29.341797 A 1.0001 1.0001 0 0 0 26 30 C 27.193111 30 27.538713 30.373344 27.796875 31.027344 C 28.055037 31.681344 28.026996 32.746091 27.730469 33.705078 A 1.0001 1.0001 0 0 0 27.986328 34.712891 C 27.986722 34.731991 27.987575 34.713251 27.984375 34.742188 C 27.953395 35.024428 27.910077 35.080602 27.898438 35.105469 A 1.0001 1.0001 0 0 0 27.316406 36.011719 C 27.316406 36.133233 27.179986 36.508972 26.953125 36.822266 C 26.839694 36.978913 26.713199 37.12212 26.613281 37.222656 C 26.513361 37.323192 26.386323 37.399101 26.503906 37.332031 A 1.0001 1.0001 0 0 0 26 38.199219 L 26 39.933594 A 1.0001 1.0001 0 0 0 26.054688 40.257812 C 26.328761 41.058571 26.956356 41.559154 27.539062 41.888672 C 28.121771 42.21819 28.715557 42.437503 29.232422 42.689453 C 29.749287 42.941403 30.173864 43.212503 30.464844 43.552734 C 30.551504 43.654067 30.555734 43.878936 30.625 44 L 19.375 44 C 19.44425 43.878963 19.4485 43.654039 19.535156 43.552734 C 19.826103 43.212595 20.250692 42.94331 20.767578 42.691406 C 21.284464 42.439503 21.878162 42.218284 22.460938 41.888672 C 23.043713 41.559059 23.671328 41.058726 23.945312 40.257812 A 1.0001 1.0001 0 0 0 24 39.933594 L 24 38.199219 A 1.0001 1.0001 0 0 0 23.492188 37.330078 C 23.59273 37.386858 23.471378 37.314258 23.371094 37.216797 C 23.270808 37.119337 23.146203 36.980793 23.033203 36.828125 C 22.807204 36.522789 22.666016 36.160996 22.666016 35.996094 A 1.0001 1.0001 0 0 0 22.085938 35.089844 C 22.074068 35.064624 22.029357 35.008975 21.998047 34.726562 C 21.993758 34.687722 22.001954 34.700371 22.007812 34.6875 A 1.0001 1.0001 0 0 0 22.257812 33.708984 C 21.829708 32.215104 21.927816 31.02732 22.402344 30.28125 C 22.803508 29.650526 23.646609 29.244575 24.976562 29.111328 z M 41.976562 29.111328 L 42.060547 29.341797 A 1.0001 1.0001 0 0 0 43 30 C 44.193111 30 44.538713 30.373344 44.796875 31.027344 C 45.055037 31.681344 45.026996 32.746091 44.730469 33.705078 A 1.0001 1.0001 0 0 0 44.986328 34.712891 C 44.986722 34.731991 44.987575 34.713251 44.984375 34.742188 C 44.953395 35.024428 44.910077 35.080602 44.898438 35.105469 A 1.0001 1.0001 0 0 0 44.316406 36.011719 C 44.316406 36.133233 44.179986 36.508972 43.953125 36.822266 C 43.839694 36.978913 43.713199 37.12212 43.613281 37.222656 C 43.513361 37.323192 43.386323 37.399101 43.503906 37.332031 A 1.0001 1.0001 0 0 0 43 38.199219 L 43 39.933594 A 1.0001 1.0001 0 0 0 43.054688 40.257812 C 43.328761 41.058571 43.956356 41.559154 44.539062 41.888672 C 45.12177 42.21819 45.715557 42.437503 46.232422 42.689453 C 46.749287 42.941403 47.173864 43.212503 47.464844 43.552734 C 47.551504 43.654067 47.555744 43.878936 47.625 44 L 36.375 44 C 36.44425 43.878963 36.4485 43.654039 36.535156 43.552734 C 36.826103 43.212595 37.250692 42.94331 37.767578 42.691406 C 38.284464 42.439503 38.878161 42.218284 39.460938 41.888672 C 40.043712 41.559059 40.671327 41.058726 40.945312 40.257812 A 1.0001 1.0001 0 0 0 41 39.933594 L 41 38.199219 A 1.0001 1.0001 0 0 0 40.492188 37.330078 C 40.592729 37.386858 40.471378 37.314258 40.371094 37.216797 C 40.270808 37.119337 40.146203 36.980793 40.033203 36.828125 C 39.807204 36.522789 39.666016 36.160996 39.666016 35.996094 A 1.0001 1.0001 0 0 0 39.085938 35.089844 C 39.074067 35.064624 39.029357 35.008975 38.998047 34.726562 C 38.993758 34.687722 39.001954 34.700371 39.007812 34.6875 A 1.0001 1.0001 0 0 0 39.257812 33.708984 C 38.829707 32.215104 38.927816 31.02732 39.402344 30.28125 C 39.803508 29.650526 40.646608 29.244575 41.976562 29.111328 z"></path>
</svg>