<?xml version="1.0" encoding="utf-8"?>
<svg xmlns="http://www.w3.org/2000/svg" viewBox="0 0 80 80"><path d="M 53 11 L 46 18 L 53 25 L 53 19 L 67 19 C 69.209 19 71 20.791 71 23 L 71 57 C 71 59.209 69.209 61 67 61 L 41 61 L 41 63 L 67 63 C 70.314 63 73 60.314 73 57 L 73 23 C 73 19.686 70.314 17 67 17 L 53 17 L 53 11 z M 13 17 C 9.686 17 7 19.686 7 23 L 7 57 C 7 60.314 9.686 63 13 63 L 27 63 L 27 69 L 34 62 L 27 55 L 27 61 L 13 61 C 10.791 61 9 59.209 9 57 L 9 23 C 9 20.791 10.791 19 13 19 L 39 19 L 39 17 L 13 17 z M 14 23 C 13.448 23 13 23.448 13 24 C 13 24.552 13.448 25 14 25 C 14.552 25 15 24.552 15 24 C 15 23.448 14.552 23 14 23 z M 18 23 C 17.448 23 17 23.448 17 24 C 17 24.552 17.448 25 18 25 C 18.552 25 19 24.552 19 24 C 19 23.448 18.552 23 18 23 z M 22 23 C 21.448 23 21 23.448 21 24 C 21 24.552 21.448 25 22 25 C 22.552 25 23 24.552 23 24 C 23 23.448 22.552 23 22 23 z M 26 23 C 25.448 23 25 23.448 25 24 C 25 24.552 25.448 25 26 25 C 26.552 25 27 24.552 27 24 C 27 23.448 26.552 23 26 23 z M 30 23 C 29.448 23 29 23.448 29 24 C 29 24.552 29.448 25 30 25 C 30.552 25 31 24.552 31 24 C 31 23.448 30.552 23 30 23 z M 34 23 C 33.448 23 33 23.448 33 24 C 33 24.552 33.448 25 34 25 C 34.552 25 35 24.552 35 24 C 35 23.448 34.552 23 34 23 z M 38 23 C 37.448 23 37 23.448 37 24 C 37 24.552 37.448 25 38 25 C 38.552 25 39 24.552 39 24 C 39 23.448 38.552 23 38 23 z M 58 23 C 57.448 23 57 23.448 57 24 C 57 24.552 57.448 25 58 25 C 58.552 25 59 24.552 59 24 C 59 23.448 58.552 23 58 23 z M 62 23 C 61.448 23 61 23.448 61 24 C 61 24.552 61.448 25 62 25 C 62.552 25 63 24.552 63 24 C 63 23.448 62.552 23 62 23 z M 66 23 C 65.448 23 65 23.448 65 24 C 65 24.552 65.448 25 66 25 C 66.552 25 67 24.552 67 24 C 67 23.448 66.552 23 66 23 z M 14 27 C 13.448 27 13 27.448 13 28 C 13 28.552 13.448 29 14 29 C 14.552 29 15 28.552 15 28 C 15 27.448 14.552 27 14 27 z M 66 27 C 65.448 27 65 27.448 65 28 C 65 28.552 65.448 29 66 29 C 66.552 29 67 28.552 67 28 C 67 27.448 66.552 27 66 27 z M 14 31 C 13.448 31 13 31.448 13 32 C 13 32.552 13.448 33 14 33 C 14.552 33 15 32.552 15 32 C 15 31.448 14.552 31 14 31 z M 38.910156 31 L 34.492188 34.109375 L 34.492188 37.03125 L 38.699219 34.0625 L 38.898438 34.0625 L 38.900391 34.0625 L 38.900391 48 L 41.923828 48 L 41.923828 31 L 38.910156 31 z M 66 31 C 65.448 31 65 31.448 65 32 C 65 32.552 65.448 33 66 33 C 66.552 33 67 32.552 67 32 C 67 31.448 66.552 31 66 31 z M 14 35 C 13.448 35 13 35.448 13 36 C 13 36.552 13.448 37 14 37 C 14.552 37 15 36.552 15 36 C 15 35.448 14.552 35 14 35 z M 66 35 C 65.448 35 65 35.448 65 36 C 65 36.552 65.448 37 66 37 C 66.552 37 67 36.552 67 36 C 67 35.448 66.552 35 66 35 z M 14 39 C 13.448 39 13 39.448 13 40 C 13 40.552 13.448 41 14 41 C 14.552 41 15 40.552 15 40 C 15 39.448 14.552 39 14 39 z M 66 39 C 65.448 39 65 39.448 65 40 C 65 40.552 65.448 41 66 41 C 66.552 41 67 40.552 67 40 C 67 39.448 66.552 39 66 39 z M 14 43 C 13.448 43 13 43.448 13 44 C 13 44.552 13.448 45 14 45 C 14.552 45 15 44.552 15 44 C 15 43.448 14.552 43 14 43 z M 66 43 C 65.448 43 65 43.448 65 44 C 65 44.552 65.448 45 66 45 C 66.552 45 67 44.552 67 44 C 67 43.448 66.552 43 66 43 z M 14 47 C 13.448 47 13 47.448 13 48 C 13 48.552 13.448 49 14 49 C 14.552 49 15 48.552 15 48 C 15 47.448 14.552 47 14 47 z M 66 47 C 65.448 47 65 47.448 65 48 C 65 48.552 65.448 49 66 49 C 66.552 49 67 48.552 67 48 C 67 47.448 66.552 47 66 47 z M 14 51 C 13.448 51 13 51.448 13 52 C 13 52.552 13.448 53 14 53 C 14.552 53 15 52.552 15 52 C 15 51.448 14.552 51 14 51 z M 66 51 C 65.448 51 65 51.448 65 52 C 65 52.552 65.448 53 66 53 C 66.552 53 67 52.552 67 52 C 67 51.448 66.552 51 66 51 z M 14 55 C 13.448 55 13 55.448 13 56 C 13 56.552 13.448 57 14 57 C 14.552 57 15 56.552 15 56 C 15 55.448 14.552 55 14 55 z M 18 55 C 17.448 55 17 55.448 17 56 C 17 56.552 17.448 57 18 57 C 18.552 57 19 56.552 19 56 C 19 55.448 18.552 55 18 55 z M 22 55 C 21.448 55 21 55.448 21 56 C 21 56.552 21.448 57 22 57 C 22.552 57 23 56.552 23 56 C 23 55.448 22.552 55 22 55 z M 42 55 C 41.448 55 41 55.448 41 56 C 41 56.552 41.448 57 42 57 C 42.552 57 43 56.552 43 56 C 43 55.448 42.552 55 42 55 z M 46 55 C 45.448 55 45 55.448 45 56 C 45 56.552 45.448 57 46 57 C 46.552 57 47 56.552 47 56 C 47 55.448 46.552 55 46 55 z M 50 55 C 49.448 55 49 55.448 49 56 C 49 56.552 49.448 57 50 57 C 50.552 57 51 56.552 51 56 C 51 55.448 50.552 55 50 55 z M 54 55 C 53.448 55 53 55.448 53 56 C 53 56.552 53.448 57 54 57 C 54.552 57 55 56.552 55 56 C 55 55.448 54.552 55 54 55 z M 58 55 C 57.448 55 57 55.448 57 56 C 57 56.552 57.448 57 58 57 C 58.552 57 59 56.552 59 56 C 59 55.448 58.552 55 58 55 z M 62 55 C 61.448 55 61 55.448 61 56 C 61 56.552 61.448 57 62 57 C 62.552 57 63 56.552 63 56 C 63 55.448 62.552 55 62 55 z M 66 55 C 65.448 55 65 55.448 65 56 C 65 56.552 65.448 57 66 57 C 66.552 57 67 56.552 67 56 C 67 55.448 66.552 55 66 55 z"></path></svg>