<?xml version="1.0" encoding="UTF-8"?>
<svg width="229px" height="246px" viewBox="0 0 229 246" version="1.1" xmlns="http://www.w3.org/2000/svg" xmlns:xlink="http://www.w3.org/1999/xlink">
    <defs>
        <circle id="path-1" cx="113.884398" cy="113.884398" r="113.884398"></circle>
        <rect id="path-3" x="4.54747351e-11" y="2.72848411e-11" width="145" height="90" rx="2"></rect>
        <filter x="-18.6%" y="-26.7%" width="137.2%" height="160.0%" filterUnits="objectBoundingBox" id="filter-4">
            <feOffset dx="0" dy="3" in="SourceAlpha" result="shadowOffsetOuter1"></feOffset>
            <feGaussianBlur stdDeviation="8.5" in="shadowOffsetOuter1" result="shadowBlurOuter1"></feGaussianBlur>
            <feComposite in="shadowBlurOuter1" in2="SourceAlpha" operator="out" result="shadowBlurOuter1"></feComposite>
            <feColorMatrix values="0 0 0 0 0   0 0 0 0 0   0 0 0 0 0  0 0 0 0.5 0" type="matrix" in="shadowBlurOuter1"></feColorMatrix>
        </filter>
    </defs>
    <g id="Page-1" stroke="none" stroke-width="1" fill="none" fill-rule="evenodd">
        <g id="Desktop-Copy-2" transform="translate(-53.000000, -689.000000)">
            <g id="email" transform="translate(161.689337, 813.989082) rotate(-8.000000) translate(-161.689337, -813.989082) translate(-6.810663, 643.489082)">
                <g id="wand" transform="translate(168.208528, 170.818358) rotate(39.000000) translate(-168.208528, -170.818358) translate(54.208528, 44.318358)">
                    <g id="Rectangle" transform="translate(-0.000000, 0.000000)">
                        <mask id="mask-2" fill="white">
                            <use xlink:href="#path-1"></use>
                        </mask>
                        <use id="Mask" fill="#2A7DE2" fill-rule="nonzero" xlink:href="#path-1"></use>
                        <rect fill="#182D38" fill-rule="nonzero" mask="url(#mask-2)" x="108" y="63" width="169" height="9.855824" rx="2"></rect>
                    </g>
                    <rect id="Rectangle" stroke-opacity="0.7" stroke="#9B9B9B" stroke-width="0.3" fill="#FFFFFF" fill-rule="nonzero" x="106.372205" y="62.3421292" width="16.731923" height="10.855824" rx="1"></rect>
                    <rect id="Rectangle" fill-opacity="0.5" fill="#9B9B9B" fill-rule="nonzero" x="108.372205" y="63.3421292" width="13" height="3.39244504"></rect>
                    <g id="mail" transform="translate(126.351958, 171.282685) rotate(-41.000000) translate(-126.351958, -171.282685) translate(53.851958, 126.282685)" fill-rule="nonzero">
                        <g id="Rectangle-18">
                            <use fill="black" fill-opacity="1" filter="url(#filter-4)" xlink:href="#path-3"></use>
                            <rect stroke="#979797" stroke-width="0.5" stroke-linejoin="square" fill="#FFFFFF" fill-rule="evenodd" x="0.25" y="0.25" width="144.5" height="89.5" rx="2"></rect>
                        </g>
                        <rect id="Rectangle-6" fill="#D8D8D8" transform="translate(45.553846, 35.097222) rotate(-145.000000) translate(-45.553846, -35.097222) " x="11.6538462" y="32.9444444" width="67.8" height="4.30555556" rx="2.15277778"></rect>
                        <rect id="Rectangle-6" fill="#D8D8D8" transform="translate(99.446154, 35.097222) rotate(145.000000) translate(-99.446154, -35.097222) " x="65.5461538" y="32.9444444" width="67.8" height="4.30555556" rx="2.15277778"></rect>
                        <rect id="Rectangle-6" fill="#D8D8D8" transform="translate(40.338462, 58.347222) rotate(145.000000) translate(-40.338462, -58.347222) " x="15.1307692" y="56.1944444" width="50.4153846" height="4.30555556" rx="2.15277778"></rect>
                        <rect id="Rectangle-6" fill="#D8D8D8" transform="translate(106.400000, 59.208333) rotate(-145.000000) translate(-106.400000, -59.208333) " x="81.1923077" y="57.0555556" width="50.4153846" height="4.30555556" rx="2.15277778"></rect>
                    </g>
                    <path d="M61.8341989,58.1563525 L59.1080303,54.5032472 L60.5718182,50.1864268 C60.7157005,49.7622343 60.6062065,49.2930346 60.2894685,48.9762966 C59.9727306,48.6595587 59.5036012,48.5500647 59.0793383,48.6939469 L54.7625882,50.1577348 L51.1092017,47.4315662 C50.7503398,47.1637032 50.2703102,47.1227045 49.8711529,47.326151 C49.4719956,47.5295974 49.2229794,47.941835 49.2286756,48.3897969 L49.2869739,52.9478276 L45.5652327,55.5797624 C45.1994792,55.838413 45.0122775,56.2822259 45.0823199,56.7247729 C45.1523623,57.1671793 45.4676234,57.5314561 45.8953322,57.6645085 L50.3488618,59.0194353 L51.6013972,63.3702923 C51.7541403,63.8615737 52.2088534,64.1978616 52.7254513,64.1978616 C53.1034412,64.1978616 53.4634282,64.0153716 53.686073,63.7005324 L56.3180078,59.9787912 L60.8760385,60.0370192 C61.3206249,60.0406057 61.7363083,59.7935586 61.9396845,59.3945419 C62.1430606,58.9955252 62.1021322,58.5154253 61.8341989,58.1563525 Z" id="star" fill="#FFD700" fill-rule="nonzero" transform="translate(53.567875, 55.697862) rotate(-26.000000) translate(-53.567875, -55.697862) "></path>
                    <path d="M70.6225937,83.4712143 L68.9911952,81.2851168 L69.8671577,78.7018377 C69.95326,78.4479917 69.8877364,78.1672124 69.6981935,77.9776695 C69.5086506,77.7881266 69.2279134,77.7226031 68.9740253,77.8087053 L66.3907883,78.6846678 L64.2045224,77.0532693 C63.9897717,76.8929743 63.7025116,76.8684397 63.4636472,76.9901865 C63.2247828,77.1119333 63.075766,77.3586252 63.0791748,77.6266954 L63.1140618,80.3543199 L60.886891,81.9293269 C60.6680161,82.084109 60.5559906,82.3496963 60.5979055,82.614526 C60.6398204,82.8792716 60.8284795,83.0972628 61.0844297,83.1768842 L63.7495185,83.9877018 L64.499063,86.5913492 C64.5904677,86.8853426 64.8625779,87.0865846 65.1717213,87.0865846 C65.3979187,87.0865846 65.6133427,86.9773786 65.7465782,86.788972 L67.3215852,84.5618012 L70.0492097,84.5966462 C70.3152599,84.5987924 70.5640139,84.450954 70.6857186,84.2121738 C70.8074233,83.9733935 70.7829308,83.6860913 70.6225937,83.4712143 Z" id="star" fill="#FFD700" fill-rule="nonzero" transform="translate(65.675846, 82.000000) rotate(-82.000000) translate(-65.675846, -82.000000) "></path>
                    <path d="M80.7173998,37.5032138 L79.1137856,35.3543477 L79.9748296,32.8150644 C80.0594654,32.5655416 79.9950578,32.2895442 79.808743,32.1032295 C79.6224282,31.9169147 79.3464722,31.852507 79.0969081,31.9371429 L76.5576662,32.7981868 L74.4086346,31.1945727 C74.1975413,31.0370076 73.9151735,31.012891 73.6803771,31.1325643 C73.4455808,31.2522376 73.299102,31.4947281 73.3024527,31.7582328 L73.3367455,34.4394032 L71.1475057,35.9875862 C70.9323585,36.1397322 70.8222408,36.4007963 70.8634418,36.6611157 C70.9046429,36.9213525 71.090089,37.135631 71.3416801,37.2138964 L73.9613799,38.010905 L74.6981588,40.5702097 C74.7880068,40.8591961 75.0554827,41.0570108 75.3593611,41.0570108 C75.5817061,41.0570108 75.7934613,40.9496647 75.9244276,40.7644668 L77.4726107,38.5752269 L80.1537811,38.6094784 C80.4153002,38.6115881 80.6598176,38.4662675 80.7794496,38.231554 C80.8990815,37.9968404 80.8750062,37.7144312 80.7173998,37.5032138 Z" id="star" fill="#FFD700" fill-rule="nonzero"></path>
                    <path d="M98.2997108,50.3394955 L96.3753709,47.7608523 L97.4086251,44.7137078 C97.5101884,44.41428 97.432899,44.0830827 97.209321,43.8595046 C96.9857429,43.6359266 96.6545952,43.5586373 96.3551178,43.6602005 L93.308023,44.6934547 L90.7291812,42.7691148 C90.4758688,42.5800365 90.1370269,42.5510965 89.8552709,42.6947047 C89.5735149,42.8383129 89.3977401,43.1293019 89.4017609,43.445508 L89.4429124,46.6629173 L86.8158206,48.5207397 C86.5576436,48.7033152 86.4255022,49.0165925 86.4749435,49.3289763 C86.5243848,49.6412609 86.7469205,49.8983955 87.0488303,49.9923142 L90.1924747,50.9487259 L91.0766107,54.0198961 C91.1844286,54.3666803 91.5054001,54.6040583 91.8700547,54.6040583 C92.1368691,54.6040583 92.3909757,54.4752428 92.5481356,54.253005 L94.405958,51.6259132 L97.6233673,51.667015 C97.9371907,51.6695467 98.230612,51.4951618 98.3741706,51.213505 C98.5177291,50.9318483 98.4888387,50.5929568 98.2997108,50.3394955 Z" id="star" fill="#FFD700" fill-rule="nonzero" transform="translate(92.464702, 48.604103) rotate(8.000000) translate(-92.464702, -48.604103) "></path>
                    <path d="M98.8213551,90.3800224 L96.736638,87.5864713 L97.8560051,84.2853734 C97.9660328,83.9609909 97.882302,83.6021911 97.6400907,83.3599797 C97.3978793,83.1177683 97.0391333,83.0340376 96.714697,83.1440653 L93.4136528,84.2634324 L90.6198866,82.1787153 C90.3454628,81.9738789 89.9783814,81.9425269 89.6731434,82.0981036 C89.3679055,82.2536803 89.1774813,82.5689208 89.1818373,82.91148 L89.2264183,86.3970328 L86.3803809,88.4096889 C86.100687,88.6074805 85.9575328,88.9468668 86.0110946,89.2852851 C86.0646565,89.6235959 86.3057385,89.9021605 86.6328099,90.0039065 L90.0384503,91.0400269 L90.9962715,94.3671529 C91.113075,94.7428386 91.4607967,95 91.8558422,95 C92.1448933,95 92.4201775,94.8604488 92.5904353,94.6196894 L94.6030913,91.773652 L98.0886442,91.8181793 C98.4286221,91.820922 98.7464976,91.6320036 98.9020205,91.3268731 C99.0575435,91.0217427 99.0262453,90.6546075 98.8213551,90.3800224 Z" id="star" fill="#FFD700" fill-rule="nonzero"></path>
                    <path d="M98.6934577,113.541574 L97.0898411,111.392705 L97.9508864,108.853418 C98.0355224,108.603895 97.9711146,108.327897 97.7847996,108.141582 C97.5984845,107.955267 97.3225281,107.890859 97.0729636,107.975495 L94.5337179,108.83654 L92.384683,107.232924 C92.1735894,107.075358 91.8912212,107.051242 91.6564245,107.170915 C91.4216279,107.290589 91.2751488,107.53308 91.2784995,107.796585 L91.3127924,110.477759 L89.1235493,112.025944 C88.9084017,112.178091 88.7982839,112.439155 88.839485,112.699475 C88.8806861,112.959712 89.0661325,113.173991 89.317724,113.252256 L91.9374277,114.049266 L92.6742077,116.608575 C92.7640559,116.897562 93.0315321,117.095377 93.335411,117.095377 C93.5577563,117.095377 93.7695118,116.98803 93.9004784,116.802832 L95.4486637,114.613589 L98.1298382,114.647841 C98.3913576,114.64995 98.6358754,114.504629 98.7555076,114.269915 C98.8751397,114.035202 98.8510644,113.752792 98.6934577,113.541574 Z" id="star" fill="#FFD700" fill-rule="nonzero"></path>
                    <path d="M87.0426217,131.041803 L85.4390051,128.892934 L86.3000503,126.353647 C86.3846863,126.104124 86.3202786,125.828126 86.1339635,125.641811 C85.9476485,125.455496 85.6716921,125.391088 85.4221275,125.475724 L82.8828818,126.336769 L80.733847,124.733153 C80.5227534,124.575588 80.2403852,124.551471 80.0055885,124.671144 C79.7707918,124.790818 79.6243128,125.033309 79.6276635,125.296814 L79.6619564,127.977988 L77.4727132,129.526174 C77.2575657,129.67832 77.1474479,129.939384 77.188649,130.199704 C77.2298501,130.459941 77.4152964,130.67422 77.6668879,130.752486 L80.2865916,131.549495 L81.0233716,134.108804 C81.1132198,134.397791 81.3806961,134.595606 81.684575,134.595606 C81.9069203,134.595606 82.1186758,134.488259 82.2496423,134.303061 L83.7978277,132.113818 L86.4790021,132.14807 C86.7405216,132.150179 86.9850394,132.004859 87.1046715,131.770145 C87.2243037,131.535431 87.2002283,131.253021 87.0426217,131.041803 Z" id="star" fill="#FFD700" fill-rule="nonzero"></path>
                    <path d="M64.307099,110.938576 L62.863844,109.004593 L63.6387847,106.719235 C63.7149571,106.494664 63.6569902,106.246266 63.4893066,106.078583 C63.3216231,105.910899 63.0732623,105.852932 62.8486542,105.929105 L60.5633331,106.704045 L58.6292017,105.26079 C58.4392175,105.118982 58.1850861,105.097277 57.9737691,105.204983 C57.7624521,105.312689 57.6306209,105.530931 57.6336366,105.768085 L57.6645002,108.181142 L55.6941813,109.574509 C55.5005486,109.711441 55.4014425,109.946399 55.4385235,110.180686 C55.4756045,110.4149 55.6425062,110.607751 55.8689386,110.67819 L58.2266719,111.395499 L58.8897739,113.698876 C58.9706373,113.958964 59.2113659,114.136998 59.4848569,114.136998 C59.6849677,114.136998 59.8755476,114.040386 59.9934175,113.873708 L61.3867844,111.903389 L63.7998414,111.934216 C64.0352089,111.936114 64.2552749,111.805326 64.3629438,111.594083 C64.4706127,111.38284 64.4489449,111.128672 64.307099,110.938576 Z" id="star" fill="#FFD700" fill-rule="nonzero" transform="translate(59.930843, 109.637032) rotate(46.000000) translate(-59.930843, -109.637032) "></path>
                    <path d="M99.397837,161.773547 L98.2970948,160.298537 L98.8881269,158.555539 C98.9462221,158.384263 98.9020118,158.194815 98.7741229,158.066926 C98.6462339,157.939037 98.456814,157.894827 98.2855099,157.952922 L96.5425403,158.543954 L95.0674163,157.443212 C94.9225191,157.335057 94.7286981,157.318503 94.5675307,157.400648 C94.4063634,157.482794 94.3058184,157.649242 94.3081183,157.830115 L94.3316574,159.670507 L92.8289339,160.7332 C92.681254,160.837635 92.6056678,161.016833 92.6339487,161.19552 C92.6622297,161.37415 92.7895223,161.521233 92.9622178,161.574956 L94.7604147,162.122033 L95.2661496,163.878774 C95.3278225,164.077138 95.5114215,164.212921 95.7200077,164.212921 C95.8726283,164.212921 96.0179799,164.139237 96.1078769,164.012115 L97.1705704,162.509391 L99.0109616,162.532902 C99.1904718,162.53435 99.3583118,162.4346 99.4404288,162.273489 C99.5225457,162.112379 99.5060201,161.91853 99.397837,161.773547 Z" id="star" fill="#FFD700" fill-rule="nonzero" transform="translate(96.060152, 160.780885) rotate(46.000000) translate(-96.060152, -160.780885) "></path>
                    <path d="M78.355593,149.305405 L77.2548509,147.830395 L77.8458829,146.087397 C77.9039781,145.916121 77.8597678,145.726673 77.7318789,145.598784 C77.60399,145.470895 77.4145701,145.426684 77.2432659,145.48478 L75.5002964,146.075812 L74.0251724,144.975069 C73.8802751,144.866915 73.6864541,144.850361 73.5252868,144.932506 C73.3641195,145.014651 73.2635744,145.1811 73.2658744,145.361973 L73.2894135,147.202364 L71.78669,148.265058 C71.6390101,148.369493 71.5634239,148.548691 71.5917048,148.727378 C71.6199857,148.906008 71.7472784,149.053091 71.9199739,149.106814 L73.7181708,149.653891 L74.2239057,151.410632 C74.2855786,151.608996 74.4691776,151.744779 74.6777638,151.744779 C74.8303843,151.744779 74.9757359,151.671095 75.065633,151.543973 L76.1283265,150.041249 L77.9687176,150.06476 C78.1482278,150.066208 78.3160679,149.966458 78.3981848,149.805347 C78.4803018,149.644237 78.4637762,149.450387 78.355593,149.305405 Z" id="star" fill="#FFD700" fill-rule="nonzero" transform="translate(75.017908, 148.312743) rotate(46.000000) translate(-75.017908, -148.312743) "></path>
                    <path d="M62.8806708,130.967764 L61.4981685,129.115191 L62.2404887,126.926033 C62.3134547,126.710915 62.2579278,126.472973 62.0973028,126.312348 C61.9366777,126.151723 61.6987715,126.096196 61.4836181,126.169162 L59.2944958,126.911483 L57.4417802,125.52898 C57.2597931,125.393141 57.0163592,125.372349 56.8139374,125.475522 C56.6115156,125.578694 56.4852338,125.787749 56.4881225,126.014921 L56.5176869,128.326402 L54.6303071,129.661116 C54.4448251,129.792284 54.3498909,130.017352 54.385411,130.241777 C54.4209311,130.466132 54.5808072,130.650865 54.7977081,130.718339 L57.0561945,131.405453 L57.6913838,133.611872 C57.7688433,133.861012 57.9994386,134.031551 58.2614172,134.031551 C58.4531045,134.031551 58.6356621,133.939006 58.7485704,133.779344 L60.0832845,131.891964 L62.3947658,131.921493 C62.6202257,131.923312 62.8310282,131.798028 62.9341649,131.595678 C63.0373016,131.393328 63.0165459,131.149858 62.8806708,130.967764 Z" id="star" fill="#FFD700" fill-rule="nonzero" transform="translate(58.688630, 129.721007) rotate(46.000000) translate(-58.688630, -129.721007) "></path>
                    <path d="M110.141881,143.382466 L108.292208,140.903877 L109.28537,137.974965 C109.382993,137.687156 109.308702,137.368809 109.093799,137.153906 C108.878896,136.939003 108.560598,136.864713 108.27274,136.962336 L105.343877,137.955498 L102.865097,136.105825 C102.621613,135.924083 102.295919,135.896266 102.025096,136.034302 C101.754272,136.172338 101.585317,136.452036 101.589182,136.755973 L101.628737,139.848543 L99.1035796,141.63428 C98.8554202,141.809771 98.728406,142.110893 98.775929,142.411156 C98.8234519,142.711323 99.0373529,142.958481 99.3275482,143.048755 L102.349215,143.968057 L103.199046,146.920062 C103.30268,147.253391 103.611198,147.481558 103.961703,147.481558 C104.218165,147.481558 104.462412,147.357741 104.613474,147.144126 L106.39921,144.618969 L109.49178,144.658476 C109.793427,144.660909 110.075463,144.493291 110.213451,144.222563 C110.35144,143.951835 110.32367,143.626092 110.141881,143.382466 Z" id="star" fill="#FFD700" fill-rule="nonzero" transform="translate(104.533278, 141.714409) rotate(9.000000) translate(-104.533278, -141.714409) "></path>
                    <path d="M47.7237898,96.1485127 L46.2805349,94.2145303 L47.0554756,91.9291719 C47.131648,91.704601 47.073681,91.456203 46.9059975,91.2885195 C46.7383139,91.120836 46.4899531,91.062869 46.2653451,91.1390414 L43.9800239,91.9139821 L42.0458926,90.4707272 C41.8559083,90.3289184 41.6017769,90.3072134 41.3904599,90.4149195 C41.1791429,90.5226257 41.0473118,90.7408674 41.0503274,90.978022 L41.081191,93.391079 L39.1108722,94.7844458 C38.9172394,94.9213774 38.8181334,95.1563354 38.8552143,95.3906233 C38.8922953,95.6248367 39.0591971,95.8176877 39.2856294,95.8881267 L41.6433627,96.6054354 L42.3064648,98.9088131 C42.3873281,99.1689013 42.6280568,99.3469347 42.9015477,99.3469347 C43.1016585,99.3469347 43.2922385,99.2503231 43.4101084,99.0836448 L44.8034752,97.113326 L47.2165322,97.1441523 C47.4518997,97.146051 47.6719657,97.0152624 47.7796347,96.8040198 C47.8873036,96.5927773 47.8656358,96.3386086 47.7237898,96.1485127 Z" id="star" fill="#FFD700" fill-rule="nonzero" transform="translate(43.347533, 94.846968) rotate(-21.000000) translate(-43.347533, -94.846968) "></path>
                </g>
            </g>
        </g>
    </g>
</svg>